<svg width="23" height="24" viewBox="0 0 23 24" fill="none" xmlns="http://www.w3.org/2000/svg">
<path d="M20.618 16.0513C20.4624 17.2334 19.8819 18.3185 18.9848 19.1039C18.0877 19.8893 16.9354 20.3212 15.743 20.3191C8.81623 20.3191 3.18055 14.6834 3.18055 7.75658C3.17841 6.56427 3.61037 5.41195 4.39574 4.51484C5.18111 3.61773 6.26619 3.03718 7.44831 2.88163C7.74724 2.84513 8.04996 2.90629 8.31127 3.05597C8.57259 3.20565 8.77849 3.43583 8.89823 3.71215L10.7407 7.8255V7.83597C10.8324 8.04748 10.8703 8.27841 10.8509 8.50813C10.8316 8.73784 10.7557 8.95919 10.6299 9.15241C10.6142 9.17597 10.5977 9.19778 10.5802 9.21959L8.76388 11.3727C9.41731 12.7004 10.8062 14.0771 12.1514 14.7323L14.2748 12.9255C14.2957 12.908 14.3175 12.8917 14.3402 12.8767C14.5333 12.7479 14.7554 12.6693 14.9865 12.648C15.2176 12.6267 15.4503 12.6633 15.6637 12.7545L15.675 12.7598L19.7849 14.6014C20.0617 14.7207 20.2924 14.9264 20.4426 15.1878C20.5928 15.4491 20.6543 15.7521 20.618 16.0513Z" fill="#017D6E"/>
</svg>
