<svg width="23" height="24" viewBox="0 0 23 24" fill="none" xmlns="http://www.w3.org/2000/svg">
<path d="M20.9931 12.0548C20.9937 12.2918 20.933 12.5248 20.8168 12.7314C20.7006 12.9379 20.5329 13.1109 20.3301 13.2334L7.76064 20.9227C7.54873 21.0525 7.30601 21.1233 7.05756 21.1279C6.80911 21.1325 6.56394 21.0707 6.34736 20.9489C6.13285 20.8289 5.95415 20.654 5.82965 20.4421C5.70515 20.2302 5.63934 19.989 5.63898 19.7432V4.36637C5.63934 4.12061 5.70515 3.87937 5.82965 3.66747C5.95415 3.45557 6.13285 3.28066 6.34736 3.16072C6.56394 3.03889 6.80911 2.97708 7.05756 2.98168C7.30601 2.98629 7.54873 3.05713 7.76064 3.18689L20.3301 10.8762C20.5329 10.9987 20.7006 11.1717 20.8168 11.3782C20.933 11.5847 20.9937 11.8178 20.9931 12.0548Z" fill="#017D6E"/>
</svg>
