<svg width="16" height="16" viewBox="0 0 16 16" fill="none" xmlns="http://www.w3.org/2000/svg">
<path d="M14.1604 4.82013L6.71599 12.2646C6.65115 12.3296 6.57411 12.3813 6.48928 12.4165C6.40444 12.4517 6.31349 12.4698 6.22164 12.4698C6.12978 12.4698 6.03883 12.4517 5.95399 12.4165C5.86916 12.3813 5.79212 12.3296 5.72728 12.2646L2.47033 9.00763C2.40541 8.94271 2.35392 8.86564 2.31878 8.78082C2.28365 8.69599 2.26556 8.60508 2.26556 8.51327C2.26556 8.42146 2.28365 8.33055 2.31878 8.24573C2.35392 8.16091 2.40541 8.08383 2.47033 8.01891C2.53525 7.95399 2.61232 7.9025 2.69715 7.86736C2.78197 7.83223 2.87288 7.81414 2.96469 7.81414C3.0565 7.81414 3.14741 7.83223 3.23224 7.86736C3.31706 7.9025 3.39413 7.95399 3.45905 8.01891L6.22222 10.7821L13.1729 3.83258C13.304 3.70147 13.4818 3.62781 13.6672 3.62781C13.8527 3.62781 14.0305 3.70147 14.1616 3.83258C14.2927 3.96369 14.3664 4.14151 14.3664 4.32693C14.3664 4.51236 14.2927 4.69018 14.1616 4.82129L14.1604 4.82013Z" fill="white"/>
</svg>
