<svg width="16" height="16" viewBox="0 0 16 16" fill="none" xmlns="http://www.w3.org/2000/svg">
<path d="M14.1605 4.82001L6.71605 12.2645C6.65122 12.3295 6.57417 12.3811 6.48934 12.4164C6.4045 12.4516 6.31355 12.4697 6.2217 12.4697C6.12984 12.4697 6.03889 12.4516 5.95406 12.4164C5.86922 12.3811 5.79218 12.3295 5.72734 12.2645L2.47039 9.00751C2.40547 8.94259 2.35398 8.86552 2.31884 8.78069C2.28371 8.69587 2.26563 8.60496 2.26562 8.51315C2.26562 8.42134 2.28371 8.33043 2.31884 8.2456C2.35398 8.16078 2.40547 8.08371 2.47039 8.01879C2.53531 7.95387 2.61239 7.90237 2.69721 7.86724C2.78203 7.83211 2.87294 7.81402 2.96475 7.81402C3.05656 7.81402 3.14747 7.83211 3.2323 7.86724C3.31712 7.90237 3.39419 7.95387 3.45911 8.01879L6.22228 10.782L13.1729 3.83246C13.3041 3.70134 13.4819 3.62769 13.6673 3.62769C13.8527 3.62769 14.0305 3.70134 14.1617 3.83246C14.2928 3.96357 14.3664 4.14139 14.3664 4.32681C14.3664 4.51223 14.2928 4.69006 14.1617 4.82117L14.1605 4.82001Z" fill="white"/>
</svg>
