<svg width="31" height="31" viewBox="0 0 31 31" fill="none" xmlns="http://www.w3.org/2000/svg">
<path d="M26.1667 19.5277C26.1667 19.8038 26.0848 20.0737 25.9314 20.3032C25.778 20.5328 25.56 20.7117 25.305 20.8173C25.0499 20.923 24.7693 20.9506 24.4985 20.8968C24.2277 20.8429 23.979 20.71 23.7838 20.5147C23.5886 20.3195 23.4557 20.0708 23.4018 19.8001C23.3479 19.5293 23.3756 19.2486 23.4812 18.9936C23.5869 18.7385 23.7658 18.5205 23.9953 18.3672C24.2249 18.2138 24.4948 18.1319 24.7708 18.1319C25.141 18.1319 25.4961 18.279 25.7578 18.5407C26.0196 18.8025 26.1667 19.1575 26.1667 19.5277ZM25.6374 24.0979C25.433 25.4156 24.7645 26.6169 23.7525 27.4852C22.7405 28.3535 21.4515 28.8316 20.118 28.8333H17.3264C15.8461 28.8318 14.4268 28.243 13.3801 27.1963C12.3333 26.1495 11.7446 24.7303 11.743 23.25V18.5379C9.9442 18.3112 8.28989 17.4359 7.09057 16.0762C5.89126 14.7165 5.22938 12.9658 5.22915 11.1527V5.56941C5.22915 5.32261 5.32719 5.08592 5.50171 4.91141C5.67622 4.7369 5.91291 4.63885 6.15971 4.63885H8.95138C9.19817 4.63885 9.43486 4.7369 9.60938 4.91141C9.78389 5.08592 9.88193 5.32261 9.88193 5.56941C9.88193 5.81621 9.78389 6.0529 9.60938 6.22741C9.43486 6.40193 9.19817 6.49997 8.95138 6.49997H7.09026V11.1527C7.0902 11.8923 7.23704 12.6244 7.52228 13.3067C7.80751 13.989 8.22544 14.6079 8.75182 15.1273C9.27819 15.6468 9.90251 16.0565 10.5885 16.3326C11.2745 16.6088 12.0086 16.7459 12.748 16.7361C15.7851 16.6965 18.2569 14.148 18.2569 11.0562V6.49997H16.3958C16.149 6.49997 15.9123 6.40193 15.7378 6.22741C15.5633 6.0529 15.4653 5.81621 15.4653 5.56941C15.4653 5.32261 15.5633 5.08592 15.7378 4.91141C15.9123 4.7369 16.149 4.63885 16.3958 4.63885H19.1875C19.4343 4.63885 19.671 4.7369 19.8455 4.91141C20.02 5.08592 20.118 5.32261 20.118 5.56941V11.0562C20.118 14.8761 17.2647 18.0691 13.6042 18.5367V23.25C13.6042 24.2372 13.9963 25.1839 14.6944 25.882C15.3924 26.58 16.3392 26.9722 17.3264 26.9722H20.118C20.9633 26.9708 21.783 26.6823 22.4429 26.1539C23.1027 25.6256 23.5634 24.8887 23.7495 24.0642C22.6257 23.8118 21.6354 23.1514 20.9704 22.211C20.3053 21.2705 20.0128 20.1168 20.1493 18.9731C20.2858 17.8294 20.8417 16.777 21.7094 16.0195C22.5771 15.262 23.695 14.8532 24.8466 14.8724C25.9983 14.8916 27.102 15.3372 27.944 16.1232C28.786 16.9091 29.3066 17.9795 29.405 19.1271C29.5034 20.2747 29.1726 21.4181 28.4767 22.3359C27.7807 23.2537 26.769 23.8807 25.6374 24.0956V24.0979ZM27.5625 19.5277C27.5625 18.9756 27.3988 18.4359 27.092 17.9768C26.7853 17.5177 26.3493 17.1599 25.8391 16.9486C25.329 16.7373 24.7677 16.682 24.2262 16.7897C23.6847 16.8974 23.1872 17.1633 22.7968 17.5537C22.4064 17.9442 22.1405 18.4416 22.0328 18.9831C21.9251 19.5246 21.9804 20.086 22.1917 20.5961C22.403 21.1062 22.7608 21.5422 23.2199 21.8489C23.6789 22.1557 24.2187 22.3194 24.7708 22.3194C25.5112 22.3194 26.2213 22.0253 26.7448 21.5018C27.2684 20.9782 27.5625 20.2681 27.5625 19.5277Z" fill="white"/>
</svg>
