<svg width="15" height="16" viewBox="0 0 15 16" fill="none" xmlns="http://www.w3.org/2000/svg">
<g clip-path="url(#clip0_1_250)">
<path d="M12.5625 5.76398C12.563 4.90147 12.3456 4.05282 11.9303 3.29686C11.5151 2.54089 10.9155 1.90213 10.1873 1.4399C9.4591 0.977672 8.62591 0.70697 7.76509 0.652937C6.90428 0.598904 6.04377 0.763294 5.26349 1.13084C4.48322 1.49838 3.80848 2.05715 3.30196 2.75526C2.79543 3.45337 2.47355 4.26816 2.3662 5.12396C2.25886 5.97976 2.36953 6.84881 2.68795 7.65039C3.00636 8.45197 3.52219 9.16008 4.18752 9.70895V14.139C4.18746 14.2183 4.2077 14.2964 4.24631 14.3657C4.28492 14.435 4.34062 14.4933 4.40811 14.5351C4.4756 14.5768 4.55264 14.6006 4.63191 14.6041C4.71118 14.6077 4.79005 14.5909 4.86101 14.5554L7.44446 13.2666L10.0285 14.5583C10.0933 14.5893 10.1643 14.605 10.2361 14.6043C10.3595 14.6043 10.4779 14.5552 10.5651 14.468C10.6524 14.3807 10.7014 14.2624 10.7014 14.139V9.70895C11.2835 9.2295 11.7523 8.62712 12.0741 7.94505C12.3959 7.26298 12.5627 6.51814 12.5625 5.76398ZM3.25696 5.76398C3.25696 4.93577 3.50256 4.12616 3.96269 3.43753C4.42281 2.7489 5.07681 2.21217 5.84198 1.89523C6.60714 1.57829 7.44911 1.49536 8.2614 1.65694C9.0737 1.81852 9.81984 2.21734 10.4055 2.80297C10.9911 3.3886 11.3899 4.13474 11.5515 4.94704C11.7131 5.75933 11.6302 6.6013 11.3132 7.36646C10.9963 8.13163 10.4595 8.78563 9.77091 9.24576C9.08228 9.70589 8.27267 9.95148 7.44446 9.95148C6.33425 9.95025 5.26986 9.50867 4.48482 8.72363C3.69977 7.93859 3.2582 6.87419 3.25696 5.76398ZM9.77085 13.3864L7.65209 12.3273C7.58745 12.295 7.51616 12.2781 7.44388 12.2781C7.3716 12.2781 7.30031 12.295 7.23567 12.3273L5.11808 13.3864V10.322C5.8383 10.6901 6.63561 10.882 7.44446 10.882C8.25332 10.882 9.05062 10.6901 9.77085 10.322V13.3864ZM7.44446 9.02092C8.08863 9.02092 8.71832 8.82991 9.25393 8.47203C9.78953 8.11415 10.207 7.60549 10.4535 7.01036C10.7 6.41523 10.7645 5.76037 10.6388 5.12858C10.5132 4.49679 10.203 3.91646 9.74747 3.46097C9.29198 3.00548 8.71165 2.69528 8.07986 2.56961C7.44808 2.44394 6.79321 2.50844 6.19809 2.75495C5.60296 3.00146 5.09429 3.41892 4.73641 3.95452C4.37854 4.49012 4.18752 5.11981 4.18752 5.76398C4.18844 6.62749 4.53188 7.45537 5.14248 8.06597C5.75307 8.67656 6.58095 9.02 7.44446 9.02092ZM7.44446 3.43759C7.90458 3.43759 8.35436 3.57403 8.73694 3.82966C9.11951 4.08528 9.41769 4.44862 9.59377 4.87371C9.76985 5.2988 9.81592 5.76656 9.72615 6.21783C9.63639 6.66911 9.41482 7.08363 9.08947 7.40898C8.76412 7.73433 8.3496 7.9559 7.89832 8.04567C7.44705 8.13543 6.97929 8.08936 6.55419 7.91328C6.1291 7.7372 5.76577 7.43902 5.51014 7.05645C5.25452 6.67388 5.11808 6.22409 5.11808 5.76398C5.11808 5.14698 5.36318 4.55526 5.79946 4.11897C6.23574 3.68269 6.82747 3.43759 7.44446 3.43759Z" fill="#00352E"/>
</g>
<defs>
<clipPath id="clip0_1_250">
<rect width="14.8889" height="14.8889" fill="white" transform="translate(2.28882e-05 0.180588)"/>
</clipPath>
</defs>
</svg>
