<svg width="23" height="24" viewBox="0 0 23 24" fill="none" xmlns="http://www.w3.org/2000/svg">
<path d="M18.9728 15.4236C18.908 15.4885 18.831 15.54 18.7463 15.5751C18.6616 15.6102 18.5707 15.6283 18.479 15.6283C18.3873 15.6283 18.2965 15.6102 18.2118 15.5751C18.127 15.54 18.0501 15.4885 17.9853 15.4236L11.4999 8.93734L5.01447 15.4236C4.88351 15.5546 4.70589 15.6281 4.52069 15.6281C4.33549 15.6281 4.15787 15.5546 4.02692 15.4236C3.89596 15.2926 3.82239 15.115 3.82239 14.9298C3.82239 14.7446 3.89596 14.567 4.02692 14.4361L11.0061 7.45689C11.0709 7.392 11.1479 7.34052 11.2326 7.3054C11.3173 7.27028 11.4081 7.2522 11.4999 7.2522C11.5916 7.2522 11.6824 7.27028 11.7671 7.3054C11.8518 7.34052 11.9288 7.392 11.9936 7.45689L18.9728 14.4361C19.0377 14.5009 19.0892 14.5778 19.1243 14.6626C19.1594 14.7473 19.1775 14.8381 19.1775 14.9298C19.1775 15.0215 19.1594 15.1124 19.1243 15.1971C19.0892 15.2818 19.0377 15.3588 18.9728 15.4236Z" fill="white"/>
</svg>
