<svg width="16" height="15" viewBox="0 0 16 15" fill="none" xmlns="http://www.w3.org/2000/svg">
<path d="M14.3055 10.2104C14.2018 10.9985 13.8148 11.7218 13.2167 12.2454C12.6186 12.769 11.8504 13.057 11.0555 13.0556C6.43767 13.0556 2.68055 9.29844 2.68055 4.68055C2.67912 3.88568 2.96709 3.11747 3.49067 2.51939C4.01425 1.92132 4.73764 1.53429 5.52572 1.43059C5.72501 1.40625 5.92682 1.44702 6.10103 1.54681C6.27524 1.6466 6.41251 1.80006 6.49234 1.98427L7.72067 4.7265V4.73348C7.78179 4.87449 7.80703 5.02844 7.79414 5.18159C7.78125 5.33473 7.73063 5.4823 7.64681 5.61111C7.63634 5.62681 7.62529 5.64135 7.61366 5.65589L6.40277 7.09127C6.83839 7.97646 7.76429 8.89423 8.66111 9.331L10.0767 8.12652C10.0906 8.11483 10.1052 8.10396 10.1203 8.09395C10.249 8.00811 10.3971 7.95571 10.5512 7.94149C10.7052 7.92727 10.8604 7.95169 11.0026 8.01252L11.0102 8.01601L13.7501 9.24376C13.9346 9.32331 14.0885 9.46046 14.1886 9.63469C14.2887 9.80893 14.3297 10.0109 14.3055 10.2104Z" fill="#017D6E"/>
</svg>
