<svg width="23" height="23" viewBox="0 0 23 23" fill="none" xmlns="http://www.w3.org/2000/svg">
<path d="M18.973 9.17401L11.9939 16.1532C11.9291 16.2181 11.8521 16.2695 11.7674 16.3047C11.6826 16.3398 11.5918 16.3579 11.5001 16.3579C11.4084 16.3579 11.3176 16.3398 11.2328 16.3047C11.1481 16.2695 11.0711 16.2181 11.0063 16.1532L4.02716 9.17401C3.8962 9.04306 3.82263 8.86544 3.82263 8.68024C3.82263 8.49504 3.8962 8.31742 4.02716 8.18646C4.15812 8.0555 4.33573 7.98193 4.52094 7.98193C4.70614 7.98193 4.88376 8.0555 5.01471 8.18646L11.5001 14.6727L17.9855 8.18646C18.0503 8.12162 18.1273 8.07018 18.212 8.03509C18.2968 8 18.3876 7.98193 18.4793 7.98193C18.571 7.98193 18.6618 8 18.7465 8.03509C18.8312 8.07018 18.9082 8.12162 18.973 8.18646C19.0379 8.25131 19.0893 8.32829 19.1244 8.41301C19.1595 8.49773 19.1776 8.58854 19.1776 8.68024C19.1776 8.77194 19.1595 8.86275 19.1244 8.94747C19.0893 9.03219 19.0379 9.10917 18.973 9.17401Z" fill="#101918"/>
</svg>
