<svg width="23" height="23" viewBox="0 0 23 23" fill="none" xmlns="http://www.w3.org/2000/svg">
<path d="M18.973 9.28485L11.9939 16.264C11.9291 16.3289 11.8521 16.3804 11.7674 16.4155C11.6826 16.4506 11.5918 16.4687 11.5001 16.4687C11.4084 16.4687 11.3176 16.4506 11.2328 16.4155C11.1481 16.3804 11.0711 16.3289 11.0063 16.264L4.02716 9.28485C3.8962 9.1539 3.82263 8.97628 3.82263 8.79108C3.82263 8.60588 3.8962 8.42826 4.02716 8.2973C4.15812 8.16634 4.33573 8.09277 4.52094 8.09277C4.70614 8.09277 4.88376 8.16634 5.01471 8.2973L11.5001 14.7836L17.9855 8.2973C18.0503 8.23246 18.1273 8.18102 18.212 8.14593C18.2968 8.11084 18.3876 8.09277 18.4793 8.09277C18.571 8.09277 18.6618 8.11084 18.7465 8.14593C18.8312 8.18102 18.9082 8.23246 18.973 8.2973C19.0379 8.36215 19.0893 8.43913 19.1244 8.52385C19.1595 8.60857 19.1776 8.69938 19.1776 8.79108C19.1776 8.88278 19.1595 8.97359 19.1244 9.05831C19.0893 9.14303 19.0379 9.22001 18.973 9.28485Z" fill="#101918"/>
</svg>
