<svg width="30" height="31" viewBox="0 0 30 31" fill="none" xmlns="http://www.w3.org/2000/svg">
<path d="M11.2038 5.22046C11.1434 4.98218 11.1797 4.72965 11.3047 4.51803C11.4298 4.30641 11.6336 4.15289 11.8715 4.09099C13.8553 3.57937 15.9364 3.57937 17.9201 4.09099C18.1398 4.14725 18.3315 4.28182 18.459 4.46941C18.5864 4.657 18.641 4.88469 18.6125 5.1097C18.5839 5.3347 18.4741 5.54152 18.3038 5.69129C18.1335 5.84107 17.9143 5.92347 17.6875 5.92302C17.609 5.92261 17.5308 5.91246 17.4548 5.89278C15.7764 5.4594 14.0153 5.4594 12.3368 5.89278C12.2183 5.92316 12.0949 5.92987 11.9738 5.91251C11.8526 5.89515 11.7361 5.85407 11.6309 5.79162C11.5256 5.72917 11.4337 5.64657 11.3605 5.54857C11.2872 5.45056 11.234 5.33906 11.2038 5.22046ZM3.88618 13.7118C4.00396 13.7445 4.12702 13.7537 4.24834 13.7388C4.36967 13.724 4.48688 13.6853 4.59328 13.6252C4.69967 13.565 4.79318 13.4845 4.86844 13.3882C4.94371 13.2919 4.99926 13.1817 5.03193 13.0639C5.49556 11.394 6.37615 9.86933 7.59096 8.63327C7.75 8.45487 7.83431 8.22212 7.82641 7.98325C7.81851 7.74438 7.71901 7.51771 7.54852 7.35022C7.37803 7.18272 7.14963 7.08724 6.91066 7.08357C6.67169 7.0799 6.44047 7.16831 6.26492 7.33049C4.82975 8.79097 3.78911 10.5921 3.24061 12.5649C3.20768 12.6826 3.19826 12.8056 3.21288 12.9269C3.2275 13.0483 3.26589 13.1655 3.32584 13.272C3.38578 13.3785 3.46612 13.4722 3.56227 13.5476C3.65842 13.6231 3.76848 13.6789 3.88618 13.7118ZM17.4548 25.7183C15.7764 26.1517 14.0153 26.1517 12.3368 25.7183C12.0993 25.6608 11.8488 25.699 11.6392 25.8247C11.4297 25.9504 11.278 26.1535 11.2169 26.3901C11.1558 26.6266 11.1902 26.8777 11.3127 27.0892C11.4352 27.3006 11.6359 27.4554 11.8715 27.5201C13.8553 28.0317 15.9364 28.0317 17.9201 27.5201C18.1557 27.4554 18.3564 27.3006 18.4789 27.0892C18.6014 26.8777 18.6358 26.6266 18.5747 26.3901C18.5136 26.1535 18.3619 25.9504 18.1524 25.8247C17.9429 25.699 17.6923 25.6608 17.4548 25.7183ZM24.7597 13.0662C24.8257 13.3041 24.9835 13.5059 25.1984 13.6274C25.4133 13.7489 25.6676 13.7801 25.9055 13.7141C26.1433 13.6481 26.3452 13.4903 26.4667 13.2754C26.5882 13.0605 26.6194 12.8062 26.5534 12.5684C26.0045 10.5957 24.9639 8.79471 23.529 7.33398C23.4442 7.2434 23.3422 7.1707 23.2288 7.12015C23.1155 7.06961 22.9932 7.04224 22.8692 7.03965C22.7451 7.03706 22.6218 7.05931 22.5065 7.10509C22.3911 7.15086 22.2861 7.21924 22.1976 7.30621C22.1091 7.39317 22.0389 7.49695 21.9911 7.61146C21.9433 7.72596 21.9188 7.84887 21.9192 7.97295C21.9196 8.09704 21.9448 8.21979 21.9934 8.33399C22.0419 8.44818 22.1128 8.55152 22.2018 8.63792C23.4144 9.87439 24.294 11.3979 24.7585 13.0662H24.7597ZM26.5557 19.0439C25.94 21.2634 24.7017 23.2602 22.987 24.7982C22.8809 24.8939 22.7543 24.9639 22.6168 25.0028C22.4793 25.0417 22.3347 25.0484 22.1943 25.0224C22.0538 24.9965 21.9212 24.9385 21.8067 24.853C21.6922 24.7675 21.599 24.6568 21.5342 24.5295C20.9119 23.3035 19.9623 22.2737 18.7905 21.5544C17.6188 20.8351 16.2707 20.4543 14.8958 20.4543C13.5209 20.4543 12.1729 20.8351 11.0011 21.5544C9.82938 22.2737 8.87974 23.3035 8.25747 24.5295C8.19274 24.6567 8.09961 24.7673 7.98528 24.8528C7.87096 24.9383 7.73851 24.9963 7.59818 25.0224C7.45784 25.0485 7.31339 25.0419 7.17599 25.0032C7.03859 24.9646 6.91193 24.8948 6.8058 24.7993C5.09107 23.2605 3.85272 21.2629 3.23712 19.0427C3.17126 18.8048 3.20258 18.5506 3.32419 18.3358C3.4458 18.121 3.64775 17.9634 3.8856 17.8975C4.12345 17.8317 4.37773 17.863 4.59249 17.9846C4.80725 18.1062 4.9649 18.3082 5.03077 18.546C5.44702 20.0498 6.20315 21.4379 7.24084 22.6032C8.27911 21.0973 9.74032 19.9328 11.44 19.2567C10.5279 18.5388 9.86235 17.5545 9.53575 16.4407C9.20915 15.3269 9.23779 14.139 9.61768 13.0422C9.99758 11.9454 10.7098 10.9943 11.6554 10.3212C12.601 9.64801 13.7328 9.28627 14.8935 9.28627C16.0542 9.28627 17.186 9.64801 18.1316 10.3212C19.0771 10.9943 19.7894 11.9454 20.1693 13.0422C20.5492 14.139 20.5778 15.3269 20.2512 16.4407C19.9246 17.5545 19.259 18.5388 18.347 19.2567C20.0467 19.9328 21.5079 21.0973 22.5461 22.6032C23.5838 21.4379 24.34 20.0498 24.7562 18.546C24.7889 18.4282 24.8445 18.3181 24.9197 18.2218C24.995 18.1255 25.0885 18.0449 25.1949 17.9848C25.3013 17.9246 25.4185 17.886 25.5398 17.8711C25.6611 17.8563 25.7842 17.8654 25.902 17.8981C26.0197 17.9308 26.1299 17.9864 26.2262 18.0616C26.3225 18.1369 26.403 18.2304 26.4632 18.3368C26.5234 18.4432 26.562 18.5604 26.5769 18.6817C26.5917 18.803 26.5826 18.9261 26.5499 19.0439H26.5557ZM14.8958 18.5972C15.632 18.5972 16.3517 18.3789 16.9638 17.9699C17.5759 17.5609 18.053 16.9795 18.3347 16.2994C18.6164 15.6193 18.6901 14.8708 18.5465 14.1488C18.4029 13.4268 18.0484 12.7635 17.5278 12.243C17.0073 11.7224 16.344 11.3679 15.622 11.2243C14.8999 11.0806 14.1515 11.1544 13.4714 11.4361C12.7912 11.7178 12.2099 12.1949 11.8009 12.807C11.3919 13.4191 11.1736 14.1388 11.1736 14.875C11.1736 15.8622 11.5658 16.8089 12.2638 17.507C12.9619 18.205 13.9086 18.5972 14.8958 18.5972Z" fill="white"/>
</svg>
