<svg width="23" height="23" viewBox="0 0 23 23" fill="none" xmlns="http://www.w3.org/2000/svg">
<path d="M18.9729 8.95234L11.9938 15.9315C11.9289 15.9964 11.852 16.0479 11.7672 16.083C11.6825 16.1181 11.5917 16.1362 11.5 16.1362C11.4083 16.1362 11.3174 16.1181 11.2327 16.083C11.148 16.0479 11.071 15.9964 11.0062 15.9315L4.02704 8.95234C3.89608 8.82138 3.82251 8.64376 3.82251 8.45856C3.82251 8.27336 3.89608 8.09574 4.02704 7.96478C4.158 7.83382 4.33561 7.76025 4.52081 7.76025C4.70602 7.76025 4.88363 7.83382 5.01459 7.96478L11.5 14.451L17.9854 7.96478C18.0502 7.89994 18.1272 7.8485 18.2119 7.81341C18.2966 7.77832 18.3874 7.76025 18.4791 7.76025C18.5709 7.76025 18.6617 7.77832 18.7464 7.81341C18.8311 7.8485 18.9081 7.89994 18.9729 7.96478C19.0378 8.02963 19.0892 8.10661 19.1243 8.19133C19.1594 8.27605 19.1775 8.36686 19.1775 8.45856C19.1775 8.55026 19.1594 8.64107 19.1243 8.72579C19.0892 8.81051 19.0378 8.88749 18.9729 8.95234Z" fill="#101918"/>
</svg>
