<svg width="23" height="23" viewBox="0 0 23 23" fill="none" xmlns="http://www.w3.org/2000/svg">
<path d="M18.973 9.06317L11.9939 16.0423C11.9291 16.1072 11.8521 16.1587 11.7674 16.1938C11.6826 16.229 11.5918 16.247 11.5001 16.247C11.4084 16.247 11.3176 16.229 11.2328 16.1938C11.1481 16.1587 11.0711 16.1072 11.0063 16.0423L4.02716 9.06317C3.8962 8.93222 3.82263 8.7546 3.82263 8.5694C3.82263 8.3842 3.8962 8.20658 4.02716 8.07562C4.15812 7.94466 4.33573 7.87109 4.52094 7.87109C4.70614 7.87109 4.88376 7.94466 5.01471 8.07562L11.5001 14.5619L17.9855 8.07562C18.0503 8.01078 18.1273 7.95934 18.212 7.92425C18.2968 7.88916 18.3876 7.87109 18.4793 7.87109C18.571 7.87109 18.6618 7.88916 18.7465 7.92425C18.8312 7.95934 18.9082 8.01078 18.973 8.07562C19.0379 8.14047 19.0893 8.21745 19.1244 8.30217C19.1595 8.38689 19.1776 8.4777 19.1776 8.5694C19.1776 8.6611 19.1595 8.75191 19.1244 8.83663C19.0893 8.92135 19.0379 8.99833 18.973 9.06317Z" fill="#101918"/>
</svg>
