<svg width="31" height="31" viewBox="0 0 31 31" fill="none" xmlns="http://www.w3.org/2000/svg">
<path d="M4.03189 15.6195C4.12965 15.6928 4.2409 15.7461 4.35928 15.7764C4.47766 15.8068 4.60085 15.8135 4.72182 15.7962C4.8428 15.7789 4.95918 15.738 5.06434 15.6757C5.16949 15.6135 5.26135 15.5311 5.33467 15.4333C5.89808 14.6821 6.62865 14.0724 7.46854 13.6525C8.30842 13.2325 9.23454 13.0139 10.1736 13.0139C11.1126 13.0139 12.0387 13.2325 12.8786 13.6525C13.7185 14.0724 14.449 14.6821 15.0124 15.4333C15.1607 15.6306 15.3812 15.7609 15.6255 15.7956C15.8698 15.8303 16.1179 15.7665 16.3152 15.6183C16.3856 15.566 16.4479 15.5037 16.5002 15.4333C17.0636 14.6821 17.7942 14.0724 18.634 13.6525C19.4739 13.2325 20.4 13.0139 21.3391 13.0139C22.2781 13.0139 23.2042 13.2325 24.0441 13.6525C24.884 14.0724 25.6145 14.6821 26.1779 15.4333C26.3262 15.6308 26.5468 15.7612 26.7912 15.796C27.0356 15.8308 27.2839 15.7671 27.4813 15.6189C27.6787 15.4706 27.8092 15.25 27.844 15.0056C27.8788 14.7612 27.8151 14.5129 27.6668 14.3155C26.8431 13.2113 25.7447 12.3418 24.4808 11.7937C25.1737 11.1611 25.6592 10.3338 25.8735 9.42032C26.0878 8.50687 26.0209 7.54997 25.6817 6.67521C25.3424 5.80044 24.7466 5.04868 23.9724 4.51859C23.1983 3.98849 22.282 3.70483 21.3437 3.70483C20.4055 3.70483 19.4891 3.98849 18.715 4.51859C17.9408 5.04868 17.345 5.80044 17.0058 6.67521C16.6665 7.54997 16.5996 8.50687 16.8139 9.42032C17.0282 10.3338 17.5137 11.1611 18.2066 11.7937C17.294 12.1883 16.465 12.7532 15.7639 13.4582C15.0628 12.7532 14.2338 12.1883 13.3212 11.7937C14.0141 11.1611 14.4995 10.3338 14.7138 9.42032C14.9281 8.50687 14.8612 7.54997 14.522 6.67521C14.1827 5.80044 13.5869 5.04868 12.8128 4.51859C12.0386 3.98849 11.1223 3.70483 10.184 3.70483C9.24578 3.70483 8.32944 3.98849 7.55529 4.51859C6.78114 5.04868 6.18533 5.80044 5.84607 6.67521C5.50681 7.54997 5.43994 8.50687 5.65424 9.42032C5.86853 10.3338 6.35399 11.1611 7.04689 11.7937C5.77744 12.34 4.67362 13.21 3.84578 14.3167C3.77246 14.4144 3.71911 14.5257 3.68878 14.6441C3.65845 14.7624 3.65174 14.8856 3.66902 15.0066C3.6863 15.1276 3.72724 15.244 3.7895 15.3491C3.85177 15.4543 3.93413 15.5461 4.03189 15.6195ZM21.3402 5.56945C21.8924 5.56945 22.4321 5.73318 22.8912 6.03993C23.3503 6.34668 23.7081 6.78268 23.9194 7.29279C24.1307 7.8029 24.186 8.36421 24.0782 8.90574C23.9705 9.44727 23.7047 9.9447 23.3142 10.3351C22.9238 10.7255 22.4264 10.9914 21.8849 11.0991C21.3433 11.2069 20.782 11.1516 20.2719 10.9403C19.7618 10.729 19.3258 10.3712 19.019 9.91208C18.7123 9.453 18.5486 8.91326 18.5486 8.36112C18.5486 7.62072 18.8427 6.91065 19.3662 6.38711C19.8898 5.86357 20.5998 5.56945 21.3402 5.56945ZM10.1736 5.56945C10.7257 5.56945 11.2654 5.73318 11.7245 6.03993C12.1836 6.34668 12.5414 6.78268 12.7527 7.29279C12.964 7.8029 13.0193 8.36421 12.9116 8.90574C12.8039 9.44727 12.538 9.9447 12.1476 10.3351C11.7571 10.7255 11.2597 10.9914 10.7182 11.0991C10.1767 11.2069 9.61534 11.1516 9.10523 10.9403C8.59512 10.729 8.15912 10.3712 7.85237 9.91208C7.54562 9.453 7.38189 8.91326 7.38189 8.36112C7.38189 7.62072 7.67601 6.91065 8.19955 6.38711C8.72309 5.86357 9.43316 5.56945 10.1736 5.56945ZM24.4808 23.8909C25.1737 23.2583 25.6592 22.431 25.8735 21.5175C26.0878 20.6041 26.0209 19.6472 25.6817 18.7724C25.3424 17.8977 24.7466 17.1459 23.9724 16.6158C23.1983 16.0857 22.282 15.8021 21.3437 15.8021C20.4055 15.8021 19.4891 16.0857 18.715 16.6158C17.9408 17.1459 17.345 17.8977 17.0058 18.7724C16.6665 19.6472 16.5996 20.6041 16.8139 21.5175C17.0282 22.431 17.5137 23.2583 18.2066 23.8909C17.294 24.2855 16.465 24.8505 15.7639 25.5555C15.0628 24.8505 14.2338 24.2855 13.3212 23.8909C14.0141 23.2583 14.4995 22.431 14.7138 21.5175C14.9281 20.6041 14.8612 19.6472 14.522 18.7724C14.1827 17.8977 13.5869 17.1459 12.8128 16.6158C12.0386 16.0857 11.1223 15.8021 10.184 15.8021C9.24578 15.8021 8.32944 16.0857 7.55529 16.6158C6.78114 17.1459 6.18533 17.8977 5.84607 18.7724C5.50681 19.6472 5.43994 20.6041 5.65424 21.5175C5.86853 22.431 6.35399 23.2583 7.04689 23.8909C5.77744 24.4373 4.67362 25.3072 3.84578 26.4139C3.77246 26.5117 3.71911 26.6229 3.68878 26.7413C3.65845 26.8597 3.65174 26.9829 3.66902 27.1038C3.6863 27.2248 3.72724 27.3412 3.7895 27.4463C3.85177 27.5515 3.93413 27.6433 4.03189 27.7167C4.12965 27.79 4.2409 27.8433 4.35928 27.8737C4.47766 27.904 4.60085 27.9107 4.72182 27.8934C4.8428 27.8761 4.95918 27.8352 5.06434 27.7729C5.16949 27.7107 5.26135 27.6283 5.33467 27.5306C5.89808 26.7793 6.62865 26.1696 7.46854 25.7497C8.30842 25.3297 9.23454 25.1111 10.1736 25.1111C11.1126 25.1111 12.0387 25.3297 12.8786 25.7497C13.7185 26.1696 14.449 26.7793 15.0124 27.5306C15.1607 27.7278 15.3812 27.8581 15.6255 27.8928C15.8698 27.9275 16.1179 27.8637 16.3152 27.7155C16.3856 27.6632 16.4479 27.6009 16.5002 27.5306C17.0636 26.7793 17.7942 26.1696 18.634 25.7497C19.4739 25.3297 20.4 25.1111 21.3391 25.1111C22.2781 25.1111 23.2042 25.3297 24.0441 25.7497C24.884 26.1696 25.6145 26.7793 26.1779 27.5306C26.3262 27.728 26.5468 27.8585 26.7912 27.8933C27.0356 27.9281 27.2839 27.8643 27.4813 27.7161C27.6787 27.5679 27.8092 27.3473 27.844 27.1028C27.8788 26.8584 27.8151 26.6102 27.6668 26.4127C26.8431 25.3085 25.7447 24.4391 24.4808 23.8909ZM10.1736 17.6667C10.7257 17.6667 11.2654 17.8304 11.7245 18.1372C12.1836 18.4439 12.5414 18.8799 12.7527 19.39C12.964 19.9001 13.0193 20.4614 12.9116 21.003C12.8039 21.5445 12.538 22.0419 12.1476 22.4323C11.7571 22.8228 11.2597 23.0886 10.7182 23.1964C10.1767 23.3041 9.61534 23.2488 9.10523 23.0375C8.59512 22.8262 8.15912 22.4684 7.85237 22.0093C7.54562 21.5502 7.38189 21.0105 7.38189 20.4583C7.38189 19.7179 7.67601 19.0079 8.19955 18.4843C8.72309 17.9608 9.43316 17.6667 10.1736 17.6667ZM21.3402 17.6667C21.8924 17.6667 22.4321 17.8304 22.8912 18.1372C23.3503 18.4439 23.7081 18.8799 23.9194 19.39C24.1307 19.9001 24.186 20.4614 24.0782 21.003C23.9705 21.5445 23.7047 22.0419 23.3142 22.4323C22.9238 22.8228 22.4264 23.0886 21.8849 23.1964C21.3433 23.3041 20.782 23.2488 20.2719 23.0375C19.7618 22.8262 19.3258 22.4684 19.019 22.0093C18.7123 21.5502 18.5486 21.0105 18.5486 20.4583C18.5486 19.7179 18.8427 19.0079 19.3662 18.4843C19.8898 17.9608 20.5998 17.6667 21.3402 17.6667Z" fill="white"/>
</svg>
