<svg width="31" height="31" viewBox="0 0 31 31" fill="none" xmlns="http://www.w3.org/2000/svg">
<path d="M29.2417 6.48717C29.2284 6.25952 29.132 6.04467 28.9707 5.88342C28.8095 5.72217 28.5946 5.62575 28.367 5.61245C22.3463 5.26349 17.5121 7.09436 15.4346 10.5235C14.062 12.7905 14.0643 15.5438 15.416 18.1703C14.6466 19.0862 14.0844 20.1575 13.7677 21.3109L11.8752 19.4114C12.7848 17.5119 12.7499 15.5322 11.7589 13.8874C10.2235 11.3528 6.67923 9.99421 2.27886 10.2524C2.05121 10.2657 1.83636 10.3622 1.67511 10.5234C1.51386 10.6847 1.41743 10.8995 1.40414 11.1272C1.14475 15.5275 2.50452 19.0718 5.03912 20.6072C5.87554 21.1182 6.83667 21.3887 7.81683 21.3889C8.76821 21.3771 9.70478 21.1517 10.5573 20.7293L13.4653 23.6373V26.9722C13.4653 27.219 13.5633 27.4557 13.7379 27.6302C13.9124 27.8047 14.1491 27.9027 14.3959 27.9027C14.6427 27.9027 14.8793 27.8047 15.0539 27.6302C15.2284 27.4557 15.3264 27.219 15.3264 26.9722V23.5419C15.3223 22.0615 15.8261 20.6245 16.7537 19.4707C17.9505 20.0962 19.2779 20.431 20.6283 20.4478C21.9338 20.452 23.2151 20.0954 24.3307 19.4172C27.7598 17.3421 29.5953 12.5079 29.2417 6.48717ZM5.99876 19.0159C4.21442 17.9353 3.20477 15.3775 3.22919 12.0833C6.52336 12.0554 9.08122 13.0685 10.1618 14.8529C10.726 15.7834 10.8179 16.8687 10.448 17.9865L7.60862 15.1472C7.43269 14.98 7.19842 14.8882 6.95577 14.8913C6.71311 14.8944 6.48127 14.9922 6.30968 15.1638C6.13808 15.3354 6.04031 15.5672 6.0372 15.8099C6.03409 16.0525 6.1259 16.2868 6.29305 16.4627L9.1324 19.3021C8.01457 19.672 6.93048 19.5801 5.99876 19.0159ZM23.3664 17.8272C21.8077 18.7705 19.9757 18.8426 18.1146 18.0598L24.3598 11.8134C24.5269 11.6375 24.6187 11.4032 24.6156 11.1606C24.6125 10.9179 24.5147 10.6861 24.3432 10.5145C24.1716 10.3429 23.9397 10.2451 23.6971 10.242C23.4544 10.2389 23.2201 10.3307 23.0442 10.4979L16.7979 16.7361C16.0115 14.875 16.0825 13.0418 17.0305 11.4843C18.652 8.80891 22.4975 7.3177 27.4213 7.43285C27.533 12.3555 26.0441 16.2057 23.3664 17.8272Z" fill="white"/>
</svg>
