<svg width="23" height="24" viewBox="0 0 23 24" fill="none" xmlns="http://www.w3.org/2000/svg">
<path d="M20.7291 16.0513C20.5736 17.2334 19.993 18.3185 19.0959 19.1039C18.1988 19.8893 17.0465 20.3212 15.8542 20.3191C8.92737 20.3191 3.29169 14.6834 3.29169 7.75658C3.28956 6.56427 3.72151 5.41195 4.50688 4.51484C5.29225 3.61773 6.37733 3.03718 7.55945 2.88163C7.85838 2.84513 8.1611 2.90629 8.42242 3.05597C8.68373 3.20565 8.88963 3.43583 9.00938 3.71215L10.8519 7.8255V7.83597C10.9436 8.04748 10.9814 8.27841 10.9621 8.50813C10.9427 8.73784 10.8668 8.95919 10.7411 9.15241C10.7254 9.17597 10.7088 9.19778 10.6914 9.21959L8.87503 11.3727C9.52845 12.7004 10.9173 14.0771 12.2625 14.7323L14.386 12.9255C14.4068 12.908 14.4287 12.8917 14.4514 12.8767C14.6444 12.7479 14.8666 12.6693 15.0976 12.648C15.3287 12.6267 15.5614 12.6633 15.7748 12.7545L15.7861 12.7598L19.896 14.6014C20.1728 14.7207 20.4036 14.9264 20.5537 15.1878C20.7039 15.4491 20.7654 15.7521 20.7291 16.0513Z" fill="#017D6E"/>
</svg>
