<svg width="16" height="16" viewBox="0 0 16 16" fill="none" xmlns="http://www.w3.org/2000/svg">
<path d="M13.2229 6.66044L8.57017 11.3132C8.50533 11.3783 8.42829 11.4299 8.34345 11.4651C8.25862 11.5004 8.16767 11.5185 8.07581 11.5185C7.98396 11.5185 7.893 11.5004 7.80817 11.4651C7.72334 11.4299 7.64629 11.3783 7.58145 11.3132L2.92868 6.66044C2.79757 6.52932 2.72391 6.3515 2.72391 6.16608C2.72391 5.98066 2.79757 5.80283 2.92868 5.67172C3.05979 5.54061 3.23761 5.46695 3.42303 5.46695C3.60845 5.46695 3.78628 5.54061 3.91739 5.67172L8.07639 9.83072L12.2354 5.67114C12.3665 5.54003 12.5443 5.46637 12.7298 5.46637C12.9152 5.46637 13.093 5.54003 13.2241 5.67114C13.3552 5.80225 13.4289 5.98008 13.4289 6.1655C13.4289 6.35092 13.3552 6.52874 13.2241 6.65986L13.2229 6.66044Z" fill="#101918"/>
</svg>
