<svg width="23" height="24" viewBox="0 0 23 24" fill="none" xmlns="http://www.w3.org/2000/svg">
<path d="M20.8403 16.0513C20.6847 17.2334 20.1042 18.3185 19.207 19.1039C18.3099 19.8893 17.1576 20.3212 15.9653 20.3191C9.03849 20.3191 3.40281 14.6834 3.40281 7.75658C3.40067 6.56427 3.83263 5.41195 4.618 4.51484C5.40337 3.61773 6.48845 3.03718 7.67057 2.88163C7.9695 2.84513 8.27222 2.90629 8.53353 3.05597C8.79485 3.20565 9.00075 3.43583 9.12049 3.71215L10.963 7.8255V7.83597C11.0547 8.04748 11.0925 8.27841 11.0732 8.50813C11.0539 8.73784 10.9779 8.95919 10.8522 9.15241C10.8365 9.17597 10.8199 9.19778 10.8025 9.21959L8.98614 11.3727C9.63957 12.7004 11.0284 14.0771 12.3737 14.7323L14.4971 12.9255C14.5179 12.908 14.5398 12.8917 14.5625 12.8767C14.7556 12.7479 14.9777 12.6693 15.2087 12.648C15.4398 12.6267 15.6726 12.6633 15.8859 12.7545L15.8973 12.7598L20.0071 14.6014C20.2839 14.7207 20.5147 14.9264 20.6648 15.1878C20.815 15.4491 20.8766 15.7521 20.8403 16.0513Z" fill="#017D6E"/>
</svg>
