<svg width="16" height="16" viewBox="0 0 16 16" fill="none" xmlns="http://www.w3.org/2000/svg">
<path d="M13.9382 4.82001L6.49376 12.2645C6.42893 12.3295 6.35188 12.3811 6.26705 12.4164C6.18221 12.4516 6.09126 12.4697 5.99941 12.4697C5.90755 12.4697 5.8166 12.4516 5.73177 12.4164C5.64693 12.3811 5.56989 12.3295 5.50505 12.2645L2.2481 9.00751C2.18318 8.94259 2.13169 8.86552 2.09655 8.78069C2.06142 8.69587 2.04333 8.60496 2.04333 8.51315C2.04333 8.42134 2.06142 8.33043 2.09655 8.2456C2.13169 8.16078 2.18318 8.08371 2.2481 8.01879C2.31302 7.95387 2.3901 7.90237 2.47492 7.86724C2.55974 7.83211 2.65065 7.81402 2.74246 7.81402C2.83427 7.81402 2.92518 7.83211 3.01001 7.86724C3.09483 7.90237 3.1719 7.95387 3.23682 8.01879L5.99999 10.782L12.9507 3.83246C13.0818 3.70134 13.2596 3.62769 13.445 3.62769C13.6304 3.62769 13.8083 3.70134 13.9394 3.83246C14.0705 3.96357 14.1441 4.14139 14.1441 4.32681C14.1441 4.51223 14.0705 4.69006 13.9394 4.82117L13.9382 4.82001Z" fill="white"/>
</svg>
