<svg width="45" height="46" viewBox="0 0 45 46" fill="none" xmlns="http://www.w3.org/2000/svg">
<path d="M20.3089 12.9096V28.2638C20.3066 30.4843 19.4235 32.6132 17.8534 34.1833C16.2833 35.7534 14.1544 36.6365 11.9339 36.6388C11.5637 36.6388 11.2087 36.4918 10.9469 36.23C10.6851 35.9682 10.5381 35.6132 10.5381 35.243C10.5381 34.8728 10.6851 34.5177 10.9469 34.256C11.2087 33.9942 11.5637 33.8471 11.9339 33.8471C13.4147 33.8471 14.8349 33.2589 15.8819 32.2118C16.929 31.1647 17.5173 29.7446 17.5173 28.2638V26.868H7.0485C6.30811 26.868 5.59804 26.5739 5.0745 26.0503C4.55096 25.5268 4.25684 24.8167 4.25684 24.0763V12.9096C4.25684 12.1693 4.55096 11.4592 5.0745 10.9356C5.59804 10.4121 6.30811 10.118 7.0485 10.118H17.5173C18.2576 10.118 18.9677 10.4121 19.4913 10.9356C20.0148 11.4592 20.3089 12.1693 20.3089 12.9096ZM37.7568 10.118H27.2881C26.5477 10.118 25.8376 10.4121 25.3141 10.9356C24.7905 11.4592 24.4964 12.1693 24.4964 12.9096V24.0763C24.4964 24.8167 24.7905 25.5268 25.3141 26.0503C25.8376 26.5739 26.5477 26.868 27.2881 26.868H37.7568V28.2638C37.7568 29.7446 37.1686 31.1647 36.1215 32.2118C35.0744 33.2589 33.6543 33.8471 32.1735 33.8471C31.8033 33.8471 31.4483 33.9942 31.1865 34.256C30.9247 34.5177 30.7777 34.8728 30.7777 35.243C30.7777 35.6132 30.9247 35.9682 31.1865 36.23C31.4483 36.4918 31.8033 36.6388 32.1735 36.6388C34.394 36.6365 36.5229 35.7534 38.093 34.1833C39.6631 32.6132 40.5462 30.4843 40.5485 28.2638V12.9096C40.5485 12.1693 40.2544 11.4592 39.7308 10.9356C39.2073 10.4121 38.4972 10.118 37.7568 10.118Z" fill="#34978B"/>
</svg>
