<svg width="16" height="16" viewBox="0 0 16 16" fill="none" xmlns="http://www.w3.org/2000/svg">
<path d="M13.9382 4.82013L6.49376 12.2646C6.42893 12.3296 6.35188 12.3813 6.26705 12.4165C6.18221 12.4517 6.09126 12.4698 5.99941 12.4698C5.90755 12.4698 5.8166 12.4517 5.73177 12.4165C5.64693 12.3813 5.56989 12.3296 5.50505 12.2646L2.2481 9.00763C2.18318 8.94271 2.13169 8.86564 2.09655 8.78082C2.06142 8.69599 2.04333 8.60508 2.04333 8.51327C2.04333 8.42146 2.06142 8.33055 2.09655 8.24573C2.13169 8.16091 2.18318 8.08383 2.2481 8.01891C2.31302 7.95399 2.3901 7.9025 2.47492 7.86736C2.55974 7.83223 2.65065 7.81414 2.74246 7.81414C2.83427 7.81414 2.92518 7.83223 3.01001 7.86736C3.09483 7.9025 3.1719 7.95399 3.23682 8.01891L5.99999 10.7821L12.9507 3.83258C13.0818 3.70147 13.2596 3.62781 13.445 3.62781C13.6304 3.62781 13.8083 3.70147 13.9394 3.83258C14.0705 3.96369 14.1441 4.14151 14.1441 4.32693C14.1441 4.51236 14.0705 4.69018 13.9394 4.82129L13.9382 4.82013Z" fill="white"/>
</svg>
