<svg width="16" height="16" viewBox="0 0 16 16" fill="none" xmlns="http://www.w3.org/2000/svg">
<path d="M8.33328 2.14587C7.13698 2.14587 5.96754 2.50062 4.97285 3.16525C3.97816 3.82988 3.2029 4.77454 2.74509 5.87978C2.28729 6.98502 2.16751 8.2012 2.40089 9.37451C2.63428 10.5478 3.21035 11.6256 4.05627 12.4715C4.90218 13.3174 5.97994 13.8935 7.15326 14.1269C8.32657 14.3603 9.54275 14.2405 10.648 13.7827C11.7532 13.3249 12.6979 12.5496 13.3625 11.5549C14.0271 10.5602 14.3819 9.39079 14.3819 8.19449C14.3802 6.59081 13.7424 5.05331 12.6084 3.91934C11.4745 2.78537 9.93695 2.14757 8.33328 2.14587ZM8.33328 13.3125C7.32103 13.3125 6.3315 13.0124 5.48984 12.45C4.64818 11.8876 3.99219 11.0883 3.60482 10.1531C3.21744 9.21788 3.11609 8.18881 3.31357 7.196C3.51105 6.2032 3.9985 5.29125 4.71427 4.57547C5.43004 3.8597 6.34199 3.37225 7.3348 3.17477C8.3276 2.97729 9.35668 3.07864 10.2919 3.46602C11.2271 3.85339 12.0264 4.50939 12.5888 5.35105C13.1512 6.19271 13.4513 7.18223 13.4513 8.19449C13.4498 9.55141 12.9101 10.8523 11.9506 11.8118C10.9911 12.7713 9.6902 13.311 8.33328 13.3125ZM12.0555 8.19449C12.0555 8.31788 12.0065 8.43623 11.9192 8.52349C11.832 8.61074 11.7136 8.65976 11.5902 8.65976H8.33328C8.20988 8.65976 8.09154 8.61074 8.00428 8.52349C7.91702 8.43623 7.868 8.31788 7.868 8.19449V4.93754C7.868 4.81414 7.91702 4.6958 8.00428 4.60854C8.09154 4.52128 8.20988 4.47226 8.33328 4.47226C8.45668 4.47226 8.57503 4.52128 8.66228 4.60854C8.74954 4.6958 8.79856 4.81414 8.79856 4.93754V7.72921H11.5902C11.7136 7.72921 11.832 7.77823 11.9192 7.86548C12.0065 7.95274 12.0555 8.07109 12.0555 8.19449Z" fill="white"/>
</svg>
