<svg width="189" height="38" viewBox="0 0 189 38" fill="none" xmlns="http://www.w3.org/2000/svg">
<g clip-path="url(#clip0_4002_42)">
<path fill-rule="evenodd" clip-rule="evenodd" d="M24.3227 11.5683C22.7924 10.5458 20.9932 10.0001 19.1528 10.0001V0.694519C22.8337 0.694519 26.432 1.78604 29.4926 3.83106C32.5532 5.87607 34.9385 8.78273 36.3472 12.1834C37.7558 15.5842 38.1244 19.3263 37.4063 22.9365C36.6882 26.5467 34.9157 29.8629 32.3128 32.4656C29.71 35.0685 26.3938 36.841 22.7836 37.5591C19.1734 38.2772 15.4313 37.9086 12.0306 36.5001C8.62988 35.0914 5.72322 32.706 3.67821 29.6454C1.63319 26.5848 0.541672 22.9865 0.541672 19.3056H9.84723C9.84723 21.1461 10.393 22.9452 11.4155 24.4755C12.438 26.0058 13.8913 27.1985 15.5917 27.9028C17.292 28.6072 19.1631 28.7914 20.9682 28.4323C22.7733 28.0733 24.4314 27.1871 25.7328 25.8857C27.0342 24.5842 27.9205 22.9261 28.2795 21.1211C28.6386 19.316 28.4543 17.4449 27.75 15.7446C27.0457 14.0442 25.853 12.5908 24.3227 11.5683Z" fill="#B5B8B7"/>
<path fill-rule="evenodd" clip-rule="evenodd" d="M9.84722 0.694524C9.84722 1.91655 9.60653 3.1266 9.13888 4.25561C8.67123 5.38461 7.9858 6.41044 7.12169 7.27455C6.2576 8.13865 5.23176 8.82409 4.10275 9.29174C2.97375 9.75938 1.76369 10.0001 0.541672 10.0001L0.541672 19.3056C2.98571 19.3056 5.40583 18.8243 7.66384 17.889C9.92185 16.9537 11.9735 15.5828 13.7017 13.8545C15.4299 12.1264 16.8008 10.0747 17.7361 7.81669C18.6714 5.55868 19.1528 3.13856 19.1528 0.694519L9.84722 0.694524Z" fill="#B5B8B7"/>
<path d="M117.437 14.1434H112.922V28.4854H117.437V14.1434Z" fill="#B5B8B7"/>
<path d="M113.425 11.4578C113.896 11.93 114.486 12.1661 115.194 12.1661C115.903 12.1661 116.483 11.93 116.936 11.4578C117.389 10.9661 117.615 10.3758 117.615 9.68723C117.615 8.97901 117.389 8.38877 116.936 7.91663C116.483 7.44445 115.903 7.20837 115.194 7.20837C114.486 7.20837 113.896 7.44445 113.425 7.91663C112.971 8.38877 112.745 8.97901 112.745 9.68723C112.745 10.3758 112.971 10.9661 113.425 11.4578Z" fill="#B5B8B7"/>
<path d="M48.1454 28.4854V7.65106H52.7785V24.413H62.0153V28.4854H48.1454Z" fill="#B5B8B7"/>
<path fill-rule="evenodd" clip-rule="evenodd" d="M70.3588 28.8099C68.8833 28.8099 67.5456 28.4853 66.3454 27.8361C65.165 27.1672 64.2306 26.2622 63.542 25.1211C62.8534 23.9801 62.5091 22.7013 62.5091 21.2848C62.5091 19.8683 62.8534 18.5994 63.542 17.478C64.2306 16.3566 65.165 15.4712 66.3454 14.8221C67.5259 14.1531 68.8637 13.8187 70.3588 13.8187C71.8541 13.8187 73.1918 14.1433 74.3722 14.7925C75.5526 15.4417 76.4872 16.3369 77.1757 17.478C77.8643 18.5994 78.2086 19.8683 78.2086 21.2848C78.2086 22.7013 77.8643 23.9801 77.1757 25.1211C76.4872 26.2622 75.5526 27.1672 74.3722 27.8361C73.1918 28.4853 71.8541 28.8099 70.3588 28.8099ZM70.3588 24.708C71.0081 24.708 71.5786 24.5703 72.0705 24.2949C72.5623 23.9998 72.9361 23.5965 73.1918 23.085C73.4673 22.5538 73.605 21.9537 73.605 21.2848C73.605 20.6159 73.4673 20.0355 73.1918 19.5437C72.9164 19.0322 72.5328 18.6388 72.0409 18.3633C71.5687 18.0681 71.0081 17.9206 70.3588 17.9206C69.7293 17.9206 69.1687 18.0681 68.6768 18.3633C68.185 18.6388 67.8013 19.0322 67.5259 19.5437C67.2504 20.0552 67.1128 20.6454 67.1128 21.3143C67.1128 21.9635 67.2504 22.5538 67.5259 23.085C67.8013 23.5965 68.185 23.9998 68.6768 24.2949C69.1687 24.5703 69.7293 24.708 70.3588 24.708Z" fill="#B5B8B7"/>
<path fill-rule="evenodd" clip-rule="evenodd" d="M81.7845 34.0924C82.9845 34.6431 84.3715 34.9186 85.9455 34.9186C87.4799 34.9186 88.8473 34.6136 90.0474 34.0038C91.2475 33.3939 92.1917 32.548 92.8803 31.4659C93.5688 30.3839 93.9136 29.1051 93.9136 27.6295V14.1434H89.4866V15.107C89.1574 14.8298 88.7835 14.5972 88.3653 14.409C87.5979 14.0352 86.7225 13.8482 85.7389 13.8482C84.4207 13.8482 83.2501 14.163 82.2271 14.7925C81.204 15.4024 80.3975 16.2484 79.8072 17.3304C79.217 18.3929 78.922 19.5929 78.922 20.9308C78.922 22.2489 79.217 23.4489 79.8072 24.531C80.3975 25.613 81.204 26.4689 82.2271 27.0984C83.2501 27.7279 84.4207 28.0427 85.7389 28.0427C86.7028 28.0427 87.5783 27.8559 88.3653 27.4821C88.7464 27.301 89.0907 27.0876 89.3981 26.8418V27.7476C89.3981 28.751 89.0735 29.5281 88.4243 30.079C87.7948 30.6298 86.9193 30.9052 85.7979 30.9052C84.8929 30.9052 84.1158 30.7478 83.4665 30.433C82.837 30.1183 82.2664 29.6559 81.7549 29.046L78.981 31.82C79.6695 32.8037 80.6041 33.5612 81.7845 34.0924ZM88.2177 23.6162C87.7652 23.8916 87.2242 24.0293 86.5946 24.0293C85.9651 24.0293 85.4142 23.8916 84.942 23.6162C84.4895 23.3407 84.1354 22.9669 83.8797 22.4947C83.6239 22.0029 83.496 21.4816 83.496 20.9308C83.496 20.3405 83.6239 19.8093 83.8797 19.3372C84.1354 18.865 84.4994 18.4912 84.9715 18.2158C85.4437 17.9403 85.9847 17.8026 86.5946 17.8026C87.2242 17.8026 87.7652 17.9403 88.2177 18.2158C88.6899 18.4912 89.0439 18.865 89.2801 19.3372C89.5358 19.8093 89.6637 20.3405 89.6637 20.9308C89.6637 21.5209 89.5358 22.0521 89.2801 22.5242C89.0439 22.9768 88.6899 23.3407 88.2177 23.6162Z" fill="#B5B8B7"/>
<path fill-rule="evenodd" clip-rule="evenodd" d="M103.416 28.8099C101.94 28.8099 100.602 28.4853 99.402 27.8361C98.2212 27.1672 97.2869 26.2622 96.5983 25.1211C95.9097 23.9801 95.5653 22.7013 95.5653 21.2848C95.5653 19.8683 95.9097 18.5994 96.5983 17.478C97.2869 16.3566 98.2212 15.4712 99.402 14.8221C100.582 14.1531 101.92 13.8187 103.416 13.8187C104.91 13.8187 106.248 14.1433 107.428 14.7925C108.609 15.4417 109.543 16.3369 110.232 17.478C110.92 18.5994 111.265 19.8683 111.265 21.2848C111.265 22.7013 110.92 23.9801 110.232 25.1211C109.543 26.2622 108.609 27.1672 107.428 27.8361C106.248 28.4853 104.91 28.8099 103.416 28.8099ZM103.416 24.708C104.064 24.708 104.635 24.5703 105.127 24.2949C105.618 23.9998 105.992 23.5965 106.248 23.085C106.524 22.5538 106.661 21.9537 106.661 21.2848C106.661 20.6159 106.524 20.0355 106.248 19.5437C105.973 19.0322 105.589 18.6388 105.097 18.3633C104.625 18.0681 104.064 17.9206 103.416 17.9206C102.786 17.9206 102.224 18.0681 101.733 18.3633C101.241 18.6388 100.857 19.0322 100.582 19.5437C100.307 20.0552 100.169 20.6454 100.169 21.3143C100.169 21.9635 100.307 22.5538 100.582 23.085C100.857 23.5965 101.241 23.9998 101.733 24.2949C102.224 24.5703 102.786 24.708 103.416 24.708Z" fill="#B5B8B7"/>
<path fill-rule="evenodd" clip-rule="evenodd" d="M128.289 28.7805C127.326 28.7805 126.44 28.5936 125.633 28.2198C125.209 28.0231 124.826 27.7882 124.483 27.5152V34.535H120.027V14.1434H124.542V15.1332C124.869 14.8653 125.233 14.6337 125.633 14.4385C126.44 14.0449 127.326 13.8482 128.289 13.8482C129.647 13.8482 130.847 14.1729 131.89 14.8221C132.952 15.4713 133.779 16.3566 134.369 17.478C134.979 18.5994 135.283 19.8782 135.283 21.3143C135.283 22.7506 134.979 24.0293 134.369 25.1507C133.779 26.2721 132.952 27.1574 131.89 27.8066C130.847 28.4559 129.647 28.7805 128.289 28.7805ZM127.464 24.7081C128.112 24.7081 128.674 24.5605 129.145 24.2654C129.638 23.9703 130.021 23.5669 130.296 23.0555C130.572 22.544 130.71 21.9636 130.71 21.3143C130.71 20.6454 130.572 20.0553 130.296 19.5438C130.021 19.0322 129.638 18.6388 129.145 18.3634C128.674 18.0682 128.123 17.9207 127.493 17.9207C126.864 17.9207 126.303 18.0682 125.811 18.3634C125.338 18.6388 124.965 19.0322 124.69 19.5438C124.414 20.0553 124.277 20.6454 124.277 21.3143C124.277 21.9636 124.404 22.544 124.66 23.0555C124.936 23.5669 125.319 23.9703 125.811 24.2654C126.303 24.5605 126.853 24.7081 127.464 24.7081Z" fill="#B5B8B7"/>
<path d="M139.703 28.5148C140.529 28.7313 141.364 28.8394 142.21 28.8394C144.001 28.8394 145.417 28.4263 146.46 27.6C147.522 26.7738 148.053 25.6622 148.053 24.2654C148.053 23.3604 147.887 22.6324 147.552 22.0816C147.218 21.5111 146.785 21.0586 146.254 20.7241C145.722 20.3897 145.161 20.124 144.571 19.9273C143.981 19.7306 143.42 19.5634 142.89 19.4256C142.358 19.2879 141.926 19.1305 141.591 18.9535C141.257 18.7764 141.089 18.5403 141.089 18.2452C141.089 17.9698 141.217 17.7632 141.472 17.6255C141.728 17.4681 142.112 17.3895 142.624 17.3895C143.155 17.3895 143.696 17.4976 144.246 17.7141C144.817 17.9304 145.329 18.3043 145.781 18.8355L148.348 16.2386C147.7 15.4122 146.854 14.7925 145.811 14.3794C144.788 13.9466 143.667 13.7302 142.447 13.7302C141.286 13.7302 140.273 13.9269 139.408 14.3203C138.541 14.7139 137.872 15.2549 137.4 15.9434C136.929 16.6123 136.692 17.4091 136.692 18.3338C136.692 19.1994 136.86 19.9175 137.194 20.488C137.528 21.0388 137.961 21.4717 138.492 21.7864C139.023 22.1013 139.584 22.3472 140.174 22.5242C140.764 22.7013 141.325 22.8685 141.857 23.0259C142.387 23.1637 142.821 23.3309 143.155 23.5276C143.509 23.7047 143.686 23.9703 143.686 24.3244C143.686 24.5998 143.538 24.8162 143.243 24.9736C142.968 25.131 142.565 25.2097 142.034 25.2097C141.266 25.2097 140.558 25.072 139.909 24.7965C139.26 24.5014 138.698 24.0981 138.227 23.5866L135.659 26.1835C136.152 26.7147 136.741 27.1869 137.43 27.6C138.138 27.9934 138.896 28.2984 139.703 28.5148Z" fill="#B5B8B7"/>
<path d="M156.287 28.81C154.969 28.81 153.799 28.5444 152.776 28.0132C151.772 27.4623 150.986 26.7147 150.415 25.7704C149.844 24.8064 149.559 23.7047 149.559 22.4652V14.1434H154.074V22.4062C154.074 22.898 154.152 23.3211 154.31 23.6751C154.487 24.0293 154.743 24.3048 155.077 24.5015C155.412 24.6982 155.815 24.7966 156.287 24.7966C156.956 24.7966 157.487 24.59 157.881 24.1768C158.275 23.744 158.471 23.1538 158.471 22.4062V14.1434H162.986V22.4357C162.986 23.6949 162.701 24.8064 162.13 25.7704C161.559 26.7147 160.773 27.4623 159.769 28.0132C158.766 28.5444 157.605 28.81 156.287 28.81Z" fill="#B5B8B7"/>
<path d="M169.746 14.1434H165.23V28.4854H169.746V20.1044C169.746 19.6126 169.844 19.1995 170.041 18.865C170.257 18.5306 170.543 18.2748 170.897 18.0978C171.251 17.901 171.654 17.8026 172.106 17.8026C172.756 17.8026 173.297 18.0092 173.729 18.4224C174.182 18.8158 174.409 19.3765 174.409 20.1044V28.4854H178.924V20.1044C178.924 19.6126 179.022 19.1995 179.219 18.865C179.435 18.5306 179.72 18.2748 180.075 18.0978C180.428 17.901 180.832 17.8026 181.284 17.8026C181.934 17.8026 182.475 18.0092 182.907 18.4224C183.36 18.8158 183.586 19.3765 183.586 20.1044V28.4854H188.102V19.6028C188.102 18.4027 187.846 17.3797 187.334 16.5337C186.842 15.668 186.163 15.009 185.298 14.5565C184.452 14.0843 183.478 13.8482 182.376 13.8482C181.255 13.8482 180.241 14.0942 179.337 14.586C178.749 14.8994 178.235 15.3038 177.795 15.7992C177.384 15.281 176.886 14.8569 176.297 14.527C175.51 14.0745 174.615 13.8482 173.612 13.8482C172.549 13.8482 171.595 14.0745 170.75 14.527C170.381 14.7152 170.047 14.9407 169.746 15.2034V14.1434Z" fill="#B5B8B7"/>
</g>
<defs>
<clipPath id="clip0_4002_42">
<rect width="187.972" height="37.2222" fill="white" transform="translate(0.541672 0.694519)"/>
</clipPath>
</defs>
</svg>
