<svg width="155" height="38" viewBox="0 0 155 38" fill="none" xmlns="http://www.w3.org/2000/svg">
<g clip-path="url(#clip0_4002_55)">
<path d="M46.7744 27.3158H57.6347V24.0475H50.6344V11.7369H46.7744V27.3158Z" fill="#B5B8B7"/>
<path d="M64.069 25.137C62.5207 25.137 61.7138 23.7861 61.7138 21.7598C61.7138 19.7334 62.5207 18.3607 64.069 18.3607C65.6174 18.3607 66.4461 19.7334 66.4461 21.7598C66.4461 23.7861 65.6174 25.137 64.069 25.137ZM64.0908 27.6645C67.6891 27.6645 70.0444 25.1152 70.0444 21.7598C70.0444 18.4043 67.6891 15.855 64.0908 15.855C60.5143 15.855 58.1155 18.4043 58.1155 21.7598C58.1155 25.1152 60.5143 27.6645 64.0908 27.6645Z" fill="#B5B8B7"/>
<path d="M76.2727 31.1724C77.9301 31.1724 79.3912 30.802 80.3725 29.9305C81.2667 29.1243 81.8555 27.9041 81.8555 26.2264V16.1601H78.4534V17.3585H78.4098C77.7556 16.4215 76.7524 15.8333 75.2695 15.8333C72.4999 15.8333 70.5808 18.1428 70.5808 21.4111C70.5808 24.832 72.9143 26.7058 75.4222 26.7058C76.7742 26.7058 77.6247 26.1611 78.279 25.4202H78.3662V26.5315C78.3662 27.8824 77.7338 28.6667 76.229 28.6667C75.0514 28.6667 74.4626 28.1656 74.2663 27.5773H70.8207C71.1696 29.9087 73.1978 31.1724 76.2727 31.1724ZM76.2509 24.0694C74.9206 24.0694 74.0483 22.9799 74.0483 21.3022C74.0483 19.6027 74.9206 18.5133 76.2509 18.5133C77.7338 18.5133 78.5189 19.777 78.5189 21.2804C78.5189 22.8492 77.7992 24.0694 76.2509 24.0694Z" fill="#B5B8B7"/>
<path d="M88.8508 25.137C87.3024 25.137 86.4955 23.7861 86.4955 21.7598C86.4955 19.7334 87.3024 18.3607 88.8508 18.3607C90.3991 18.3607 91.2274 19.7334 91.2274 21.7598C91.2274 23.7861 90.3991 25.137 88.8508 25.137ZM88.8726 27.6645C92.4705 27.6645 94.8257 25.1152 94.8257 21.7598C94.8257 18.4043 92.4705 15.855 88.8726 15.855C85.2961 15.855 82.8972 18.4043 82.8972 21.7598C82.8972 25.1152 85.2961 27.6645 88.8726 27.6645Z" fill="#B5B8B7"/>
<path d="M95.8641 27.3158H99.4188V16.16H95.8641V27.3158ZM95.8641 14.613H99.4188V11.7369H95.8641V14.613Z" fill="#B5B8B7"/>
<path d="M100.961 30.9981H104.516V26.1611H104.559C105.257 27.098 106.282 27.6645 107.721 27.6645C110.644 27.6645 112.585 25.3549 112.585 21.738C112.585 18.3825 110.775 15.8333 107.809 15.8333C106.282 15.8333 105.192 16.5087 104.428 17.511H104.363V16.1601H100.961V30.9981ZM106.806 24.9191C105.279 24.9191 104.407 23.6772 104.407 21.8687C104.407 20.0602 105.192 18.6876 106.74 18.6876C108.267 18.6876 108.986 19.9513 108.986 21.8687C108.986 23.7643 108.158 24.9191 106.806 24.9191Z" fill="#B5B8B7"/>
<path d="M118.372 27.6645C121.294 27.6645 123.453 26.4007 123.453 23.9604C123.453 21.1061 121.141 20.605 119.179 20.2781C117.761 20.0167 116.496 19.9077 116.496 19.1233C116.496 18.4261 117.172 18.0993 118.045 18.0993C119.026 18.0993 119.702 18.4043 119.833 19.4066H123.104C122.93 17.2059 121.229 15.8333 118.066 15.8333C115.428 15.8333 113.247 17.0534 113.247 19.4066C113.247 22.0212 115.319 22.5441 117.26 22.871C118.743 23.1324 120.095 23.2414 120.095 24.2437C120.095 24.9627 119.419 25.3549 118.35 25.3549C117.172 25.3549 116.431 24.8102 116.3 23.6989H112.942C113.051 26.1611 115.101 27.6645 118.372 27.6645Z" fill="#B5B8B7"/>
<path d="M128.282 27.6426C129.83 27.6426 130.811 27.0326 131.618 25.9431H131.684V27.3158H135.086V16.16H131.531V22.3916C131.531 23.7207 130.79 24.6358 129.568 24.6358C128.434 24.6358 127.889 23.9604 127.889 22.7402V16.16H124.356V23.481C124.356 25.9649 125.708 27.6426 128.282 27.6426Z" fill="#B5B8B7"/>
<path d="M136.632 27.3159H140.187V21.0625C140.187 19.7334 140.841 18.7965 141.953 18.7965C143.022 18.7965 143.524 19.4937 143.524 20.6921V27.3159H147.078V21.0625C147.078 19.7334 147.711 18.7965 148.845 18.7965C149.913 18.7965 150.415 19.4937 150.415 20.6921V27.3159H153.97V20.0602C153.97 17.5546 152.705 15.8333 150.175 15.8333C148.736 15.8333 147.536 16.4433 146.664 17.7942H146.62C146.053 16.5959 144.941 15.8333 143.48 15.8333C141.866 15.8333 140.798 16.5959 140.1 17.7507H140.034V16.1601H136.632V27.3159Z" fill="#B5B8B7"/>
<path fill-rule="evenodd" clip-rule="evenodd" d="M18.4458 37.3023C28.4827 37.3023 36.619 29.1731 36.619 19.1451C36.619 9.11722 28.4827 0.987976 18.4458 0.987976C8.40908 0.987976 0.272675 9.11722 0.272675 19.1451C0.272675 29.1731 8.40908 37.3023 18.4458 37.3023ZM21.2509 15.0167C22.8 13.4689 22.8 10.9595 21.2509 9.41169C19.7017 7.8639 17.1901 7.8639 15.6409 9.41169C14.0918 10.9595 14.0918 13.4689 15.6409 15.0167L18.4458 17.8192L21.2509 15.0167ZM22.578 21.9477C24.1271 23.4955 26.6388 23.4955 28.188 21.9477C29.737 20.3999 29.737 17.8905 28.188 16.3426C26.6388 14.7949 24.1271 14.7949 22.578 16.3426L19.773 19.1452L22.578 21.9477ZM21.2509 28.8786C22.8 27.3308 22.8 24.8214 21.2509 23.2736L18.4458 20.4711L15.6409 23.2736C14.0918 24.8214 14.0918 27.3308 15.6409 28.8786C17.1901 30.4265 19.7017 30.4265 21.2509 28.8786ZM8.7038 21.9477C7.15468 20.3999 7.15468 17.8905 8.7038 16.3426C10.253 14.7949 12.7646 14.7949 14.3138 16.3426L17.1187 19.1452L14.3138 21.9477C12.7646 23.4955 10.253 23.4955 8.7038 21.9477Z" fill="#B5B8B7"/>
</g>
<defs>
<clipPath id="clip0_4002_55">
<rect width="154.472" height="37.2222" fill="white" transform="translate(0.180557 0.694519)"/>
</clipPath>
</defs>
</svg>
