<svg width="28" height="27" viewBox="0 0 28 27" fill="none" xmlns="http://www.w3.org/2000/svg">
<path d="M14.4375 7.19857C14.4375 10.5712 11.6635 13.3053 8.24171 13.3053H2.04592V7.19857C2.04592 3.82589 4.81986 1.0918 8.24171 1.0918C11.6635 1.0918 14.4375 3.82589 14.4375 7.19857Z" fill="#017D6E"/>
<path d="M14.4375 19.4119C14.4375 16.0393 17.2115 13.3052 20.6333 13.3052H26.8291V19.4119C26.8291 22.7846 24.0551 25.5187 20.6333 25.5187C17.2115 25.5187 14.4375 22.7846 14.4375 19.4119Z" fill="#017D6E"/>
<path d="M2.04592 19.4119C2.04592 22.7846 4.81986 25.5187 8.24171 25.5187H14.4375V19.4119C14.4375 16.0393 11.6635 13.3052 8.24171 13.3052C4.81986 13.3052 2.04592 16.0393 2.04592 19.4119Z" fill="#017D6E"/>
<path d="M26.8291 7.19857C26.8291 3.82589 24.0551 1.0918 20.6333 1.0918H14.4375V7.19857C14.4375 10.5712 17.2115 13.3053 20.6333 13.3053C24.0551 13.3053 26.8291 10.5712 26.8291 7.19857Z" fill="#017D6E"/>
</svg>
