<svg width="156" height="38" viewBox="0 0 156 38" fill="none" xmlns="http://www.w3.org/2000/svg">
<g clip-path="url(#clip0_4002_82)">
<path d="M47.7203 26.2399H58.5806V22.9716H51.5803V10.661H47.7203V26.2399Z" fill="#B5B8B7"/>
<path d="M65.015 24.061C63.4666 24.061 62.6598 22.7101 62.6598 20.6838C62.6598 18.6574 63.4666 17.2847 65.015 17.2847C66.5634 17.2847 67.3921 18.6574 67.3921 20.6838C67.3921 22.7101 66.5634 24.061 65.015 24.061ZM65.0368 26.5885C68.6351 26.5885 70.9904 24.0392 70.9904 20.6838C70.9904 17.3283 68.6351 14.7791 65.0368 14.7791C61.4603 14.7791 59.0615 17.3283 59.0615 20.6838C59.0615 24.0392 61.4603 26.5885 65.0368 26.5885Z" fill="#B5B8B7"/>
<path d="M77.2188 30.0964C78.8762 30.0964 80.3373 29.726 81.3186 28.8544C82.2128 28.0483 82.8016 26.8281 82.8016 25.1504V15.084H79.3995V16.2824H79.3559C78.7017 15.3455 77.6985 14.7572 76.2156 14.7572C73.446 14.7572 71.5269 17.0668 71.5269 20.3351C71.5269 23.7559 73.8604 25.6297 76.3683 25.6297C77.7203 25.6297 78.5709 25.085 79.2251 24.3442H79.3123V25.4554C79.3123 26.8063 78.6799 27.5907 77.1752 27.5907C75.9975 27.5907 75.4087 27.0896 75.2124 26.5013H71.7668C72.1157 28.8327 74.1439 30.0964 77.2188 30.0964ZM77.197 22.9933C75.8667 22.9933 74.9944 21.9039 74.9944 20.2261C74.9944 18.5266 75.8667 17.4372 77.197 17.4372C78.6799 17.4372 79.465 18.7009 79.465 20.2044C79.465 21.7731 78.7453 22.9933 77.197 22.9933Z" fill="#B5B8B7"/>
<path d="M89.7967 24.061C88.2484 24.061 87.4415 22.7101 87.4415 20.6838C87.4415 18.6574 88.2484 17.2847 89.7967 17.2847C91.3451 17.2847 92.1738 18.6574 92.1738 20.6838C92.1738 22.7101 91.3451 24.061 89.7967 24.061ZM89.8186 26.5885C93.4168 26.5885 95.7721 24.0392 95.7721 20.6838C95.7721 17.3283 93.4168 14.7791 89.8186 14.7791C86.2421 14.7791 83.8432 17.3283 83.8432 20.6838C83.8432 24.0392 86.2421 26.5885 89.8186 26.5885Z" fill="#B5B8B7"/>
<path d="M96.8098 26.2399H100.364V15.0841H96.8098V26.2399ZM96.8098 13.5371H100.364V10.661H96.8098V13.5371Z" fill="#B5B8B7"/>
<path d="M101.907 29.9221H105.462V25.085H105.506C106.203 26.0219 107.228 26.5884 108.668 26.5884C111.59 26.5884 113.531 24.2788 113.531 20.6619C113.531 17.3065 111.721 14.7572 108.755 14.7572C107.228 14.7572 106.138 15.4326 105.375 16.4349H105.309V15.084H101.907V29.9221ZM107.752 23.8431C106.225 23.8431 105.353 22.6011 105.353 20.7926C105.353 18.9842 106.138 17.6115 107.686 17.6115C109.213 17.6115 109.933 18.8753 109.933 20.7926C109.933 22.6883 109.104 23.8431 107.752 23.8431Z" fill="#B5B8B7"/>
<path d="M119.318 26.5884C122.24 26.5884 124.399 25.3247 124.399 22.8844C124.399 20.03 122.088 19.5289 120.125 19.2021C118.708 18.9406 117.443 18.8317 117.443 18.0473C117.443 17.35 118.119 17.0232 118.991 17.0232C119.972 17.0232 120.648 17.3283 120.779 18.3305H124.05C123.876 16.1299 122.175 14.7572 119.013 14.7572C116.374 14.7572 114.193 15.9774 114.193 18.3305C114.193 20.9452 116.265 21.4681 118.206 21.7949C119.689 22.0564 121.041 22.1653 121.041 23.1676C121.041 23.8866 120.365 24.2788 119.296 24.2788C118.119 24.2788 117.377 23.7341 117.246 22.6229H113.888C113.997 25.085 116.047 26.5884 119.318 26.5884Z" fill="#B5B8B7"/>
<path d="M129.228 26.5667C130.776 26.5667 131.758 25.9566 132.565 24.8672H132.63V26.2399H136.032V15.0841H132.477V21.3157C132.477 22.6448 131.736 23.5599 130.515 23.5599C129.381 23.5599 128.835 22.8844 128.835 21.6643V15.0841H125.303V22.4051C125.303 24.889 126.655 26.5667 129.228 26.5667Z" fill="#B5B8B7"/>
<path d="M137.578 26.2398H141.133V19.9865C141.133 18.6574 141.787 17.7205 142.899 17.7205C143.968 17.7205 144.469 18.4177 144.469 19.6161V26.2398H148.024V19.9865C148.024 18.6574 148.656 17.7205 149.79 17.7205C150.859 17.7205 151.36 18.4177 151.36 19.6161V26.2398H154.915V18.9842C154.915 16.4785 153.65 14.7572 151.121 14.7572C149.681 14.7572 148.482 15.3673 147.61 16.7182H147.566C146.999 15.5198 145.887 14.7572 144.426 14.7572C142.812 14.7572 141.743 15.5198 141.045 16.6746H140.98V15.084H137.578V26.2398Z" fill="#B5B8B7"/>
<path fill-rule="evenodd" clip-rule="evenodd" d="M19.392 37.1342C29.4288 37.1342 37.5652 29.0049 37.5652 18.977C37.5652 8.94908 29.4288 0.819824 19.392 0.819824C9.35516 0.819824 1.21875 8.94908 1.21875 18.977C1.21875 29.0049 9.35516 37.1342 19.392 37.1342ZM25.0614 9.2782C25.3373 8.29881 24.3861 7.71967 23.5173 8.33808L11.3895 16.9702C10.4473 17.6409 10.5955 18.977 11.6121 18.977H14.8057V18.9523H21.0298L15.9583 20.7401L13.7226 28.6758C13.4466 29.6552 14.3978 30.2343 15.2667 29.6159L27.3945 20.9838C28.3366 20.3132 28.1883 18.977 27.1718 18.977H22.3289L25.0614 9.2782Z" fill="#B5B8B7"/>
</g>
<defs>
<clipPath id="clip0_4002_82">
<rect width="154.472" height="37.2222" fill="white" transform="translate(0.59729 0.694519)"/>
</clipPath>
</defs>
</svg>
