<svg width="206" height="38" viewBox="0 0 206 38" fill="none" xmlns="http://www.w3.org/2000/svg">
<g clip-path="url(#clip0_4002_93)">
<path d="M19.3473 37.9167C29.6262 37.9167 37.9584 29.5845 37.9584 19.3056V6.27785C37.9584 4.79706 37.3702 3.37692 36.3231 2.32984C35.276 1.28276 33.8559 0.694519 32.3751 0.694519L20.2779 0.694519V8.85921C20.2779 10.7222 20.3914 12.6522 21.3685 14.2378C22.068 15.3742 23.0037 16.3469 24.1122 17.0898C25.2207 17.8327 26.4761 18.3285 27.793 18.5435L28.1494 18.6012C28.2964 18.6514 28.4239 18.7463 28.5142 18.8726C28.6046 18.999 28.6531 19.1504 28.6531 19.3056C28.6531 19.4609 28.6046 19.6123 28.5142 19.7386C28.4239 19.8649 28.2964 19.9598 28.1494 20.0101L27.793 20.0678C25.8688 20.3821 24.0919 21.2929 22.7133 22.6716C21.3346 24.0502 20.4238 25.8271 20.1094 27.7514L20.0518 28.1078C20.0015 28.2547 19.9066 28.3822 19.7803 28.4725C19.654 28.5629 19.5026 28.6114 19.3473 28.6114C19.192 28.6114 19.0407 28.5629 18.9143 28.4725C18.788 28.3822 18.6931 28.2547 18.6429 28.1078L18.5852 27.7514C18.3701 26.4344 17.8743 25.1791 17.1314 24.0706C16.3885 22.9621 15.4159 22.0263 14.2795 21.3268C12.6938 20.3497 10.7639 20.2362 8.90091 20.2362H0.758545C1.24523 30.0824 9.38107 37.9167 19.3473 37.9167Z" fill="#B5B8B7"/>
<path d="M0.736145 18.3751H8.90084C10.7638 18.3751 12.6938 18.2615 14.2795 17.2845C15.519 16.5208 16.5624 15.4773 17.3261 14.2378C18.3032 12.6522 18.4167 10.7222 18.4167 8.85921V0.694519H6.31948C4.83869 0.694519 3.41854 1.28276 2.37147 2.32984C1.32439 3.37692 0.736145 4.79706 0.736145 6.27785L0.736145 18.3751ZM43.9651 2.55563C43.9651 3.04923 43.769 3.52261 43.42 3.87163C43.071 4.22066 42.5976 4.41674 42.104 4.41674C41.6104 4.41674 41.137 4.22066 40.788 3.87163C40.439 3.52261 40.2429 3.04923 40.2429 2.55563C40.2429 2.06203 40.439 1.58865 40.788 1.23963C41.137 0.8906 41.6104 0.694519 42.104 0.694519C42.5976 0.694519 43.071 0.8906 43.42 1.23963C43.769 1.58865 43.9651 2.06203 43.9651 2.55563ZM197.745 11.958C202.948 11.958 205.458 15.5918 205.458 19.8007V27.7058H200.014V20.7387C200.014 18.831 199.318 17.2565 197.322 17.2565C195.326 17.2565 194.66 18.831 194.66 20.7387V27.7048H189.216V20.7387C189.216 18.831 188.55 17.2565 186.553 17.2565C184.557 17.2565 183.861 18.831 183.861 20.7387V27.7048H178.417V19.7998C178.417 15.5909 180.927 11.957 186.13 11.957C188.974 11.957 191.03 13.0774 191.968 14.9246C192.966 13.0774 195.144 11.9561 197.745 11.9561V11.958ZM168.633 22.8604C170.388 22.8604 171.144 21.2551 171.144 19.3466V12.5628H176.588V20.0129C176.588 24.4646 173.987 28.1599 168.633 28.1599C163.279 28.1599 160.678 24.4656 160.678 20.0129V12.5628H166.123V19.3466C166.123 21.2542 166.878 22.8604 168.633 22.8604ZM152.673 28.1896C149.255 28.1896 147.046 27.0088 145.746 24.7075L149.678 22.4965C150.222 23.4652 151.039 23.95 152.4 23.95C153.519 23.95 154.033 23.5564 154.033 23.0716C154.033 21.2244 146.048 23.1023 146.048 17.2277C146.048 14.3802 148.467 12.0789 152.581 12.0789C156.181 12.0789 158.147 13.8349 159.025 15.5313L155.092 17.7721C154.76 16.8639 153.731 16.3185 152.702 16.3185C151.916 16.3185 151.493 16.6517 151.493 17.1058C151.493 18.9837 159.478 17.2575 159.478 22.9506C159.478 26.1303 156.362 28.1896 152.673 28.1896ZM133.65 34.671H128.206V20.104C128.206 15.4699 131.684 12.1087 136.524 12.1087C141.243 12.1087 144.842 15.7128 144.842 20.104C144.842 24.9494 141.635 28.1599 136.826 28.1599C135.707 28.1599 134.588 27.8267 133.65 27.3112V34.671ZM136.524 23.0418C138.248 23.0418 139.397 21.7093 139.397 20.1338C139.397 18.5295 138.248 17.2268 136.524 17.2268C134.799 17.2268 133.65 18.5295 133.65 20.1348C133.65 21.7093 134.799 23.0418 136.524 23.0418ZM122.752 10.9585C120.967 10.9585 119.485 9.47431 119.485 7.68764C119.485 5.90098 120.967 4.41674 122.752 4.41674C124.536 4.41674 126.019 5.90098 126.019 7.68764C126.019 9.47431 124.536 10.9585 122.752 10.9585ZM120.03 12.5628H125.474V27.7058H120.03V12.5628ZM109.583 28.1599C104.864 28.1599 101.265 24.526 101.265 20.104C101.265 15.7128 104.864 12.0789 109.583 12.0789C114.302 12.0789 117.901 15.7128 117.901 20.104C117.901 24.526 114.302 28.1599 109.583 28.1599ZM109.583 23.0418C111.308 23.0418 112.457 21.7093 112.457 20.1338C112.457 18.5295 111.308 17.197 109.583 17.197C107.859 17.197 106.71 18.5295 106.71 20.1338C106.71 21.7093 107.859 23.0418 109.583 23.0418ZM90.9842 35.1251C87.2341 35.1251 84.5113 33.4594 83.1201 30.4909L87.6268 28.0687C88.1107 29.0988 89.018 30.1587 90.893 30.1587C92.8602 30.1587 94.1602 28.9164 94.3119 26.7361C93.5861 27.3726 92.4359 27.8565 90.7125 27.8565C86.5073 27.8565 83.1192 24.6163 83.1192 20.0733C83.1192 15.683 86.7195 12.1087 91.4383 12.1087C96.2781 12.1087 99.7566 15.4708 99.7566 20.104V26.1005C99.7566 31.5517 95.9748 35.1251 90.9842 35.1251ZM91.3471 22.7394C92.9803 22.7394 94.2207 21.6181 94.2207 19.9524C94.2207 18.3174 92.9812 17.2268 91.3471 17.2268C89.7438 17.2268 88.4736 18.3174 88.4736 19.9533C88.4736 21.619 89.7438 22.7384 91.3471 22.7384V22.7394ZM73.8843 28.1599C69.1655 28.1599 65.5652 24.526 65.5652 20.104C65.5652 15.7128 69.1655 12.0789 73.8843 12.0789C78.6022 12.0789 82.2026 15.7128 82.2026 20.104C82.2026 24.526 78.6032 28.1599 73.8843 28.1599ZM73.8843 23.0418C75.6087 23.0418 76.7579 21.7093 76.7579 20.1338C76.7579 18.5295 75.6087 17.197 73.8843 17.197C72.16 17.197 71.0108 18.5295 71.0108 20.1338C71.0108 21.7093 72.16 23.0418 73.8843 23.0418ZM55.651 7.26424V22.557H64.6653V27.7058H54.8945C51.4468 27.7058 50.0556 25.8884 50.0556 23.0111V7.26424H55.651Z" fill="#B5B8B7"/>
</g>
<defs>
<clipPath id="clip0_4002_93">
<rect width="204.722" height="37.2222" fill="white" transform="translate(0.736145 0.694519)"/>
</clipPath>
</defs>
</svg>
