<svg width="28" height="27" viewBox="0 0 28 27" fill="none" xmlns="http://www.w3.org/2000/svg">
<path d="M14.0486 6.92101C14.0486 10.2937 11.2747 13.0278 7.85282 13.0278H1.65703V6.92101C1.65703 3.54833 4.43097 0.81424 7.85282 0.81424C11.2747 0.81424 14.0486 3.54833 14.0486 6.92101Z" fill="#017D6E"/>
<path d="M14.0486 19.1345C14.0486 15.7619 16.8226 13.0278 20.2444 13.0278H26.4402V19.1345C26.4402 22.5072 23.6662 25.2413 20.2444 25.2413C16.8226 25.2413 14.0486 22.5072 14.0486 19.1345Z" fill="#017D6E"/>
<path d="M1.65703 19.1345C1.65703 22.5072 4.43097 25.2413 7.85282 25.2413H14.0486V19.1345C14.0486 15.7619 11.2747 13.0278 7.85282 13.0278C4.43097 13.0278 1.65703 15.7619 1.65703 19.1345Z" fill="#017D6E"/>
<path d="M26.4402 6.92101C26.4402 3.54833 23.6662 0.81424 20.2444 0.81424H14.0486V6.92101C14.0486 10.2937 16.8226 13.0278 20.2444 13.0278C23.6662 13.0278 26.4402 10.2937 26.4402 6.92101Z" fill="#017D6E"/>
</svg>
