<svg width="153" height="38" viewBox="0 0 153 38" fill="none" xmlns="http://www.w3.org/2000/svg">
<g clip-path="url(#clip0_4002_66)">
<path d="M45.0831 26.9792H55.9403V23.7109H48.942V11.4003H45.0831V26.9792Z" fill="#B5B8B7"/>
<path d="M62.3729 24.8004C60.825 24.8004 60.0183 23.4495 60.0183 21.4231C60.0183 19.3968 60.825 18.0241 62.3729 18.0241C63.9208 18.0241 64.7493 19.3968 64.7493 21.4231C64.7493 23.4495 63.9208 24.8004 62.3729 24.8004ZM62.3947 27.3279C65.9919 27.3279 68.3465 24.7786 68.3465 21.4231C68.3465 18.0677 65.9919 15.5184 62.3947 15.5184C58.8192 15.5184 56.4211 18.0677 56.4211 21.4231C56.4211 24.7786 58.8192 27.3279 62.3947 27.3279Z" fill="#B5B8B7"/>
<path d="M74.5731 30.8358C76.23 30.8358 77.6907 30.4654 78.6718 29.5938C79.5656 28.7876 80.1543 27.5675 80.1543 25.8898V15.8234H76.7532V17.0218H76.7096C76.0556 16.0849 75.0527 15.4966 73.5702 15.4966C70.8014 15.4966 68.8828 17.8062 68.8828 21.0745C68.8828 24.4953 71.2156 26.3691 73.7228 26.3691C75.0745 26.3691 75.9248 25.8244 76.5788 25.0836H76.666V26.1948C76.666 27.5457 76.0338 28.3301 74.5295 28.3301C73.3522 28.3301 72.7635 27.8289 72.5673 27.2406H69.1227C69.4715 29.572 71.499 30.8358 74.5731 30.8358ZM74.5513 23.7327C73.2214 23.7327 72.3493 22.6432 72.3493 20.9655C72.3493 19.266 73.2214 18.1766 74.5513 18.1766C76.0338 18.1766 76.8186 19.4403 76.8186 20.9437C76.8186 22.5125 76.0992 23.7327 74.5513 23.7327Z" fill="#B5B8B7"/>
<path d="M87.1475 24.8004C85.5995 24.8004 84.7929 23.4495 84.7929 21.4231C84.7929 19.3968 85.5995 18.0241 87.1475 18.0241C88.6954 18.0241 89.5238 19.3968 89.5238 21.4231C89.5238 23.4495 88.6954 24.8004 87.1475 24.8004ZM87.1692 27.3279C90.7665 27.3279 93.1206 24.7786 93.1206 21.4231C93.1206 18.0677 90.7665 15.5184 87.1692 15.5184C83.5938 15.5184 81.1956 18.0677 81.1956 21.4231C81.1956 24.7786 83.5938 27.3279 87.1692 27.3279Z" fill="#B5B8B7"/>
<path d="M94.1587 26.9792H97.7123V15.8234H94.1587V26.9792ZM94.1587 14.2764H97.7123V11.4003H94.1587V14.2764Z" fill="#B5B8B7"/>
<path d="M99.2542 30.6615H102.808V25.8244H102.851C103.549 26.7613 104.574 27.3278 106.013 27.3278C108.934 27.3278 110.874 25.0182 110.874 21.4013C110.874 18.0458 109.065 15.4966 106.1 15.4966C104.574 15.4966 103.484 16.172 102.721 17.1743H102.655V15.8234H99.2542V30.6615ZM105.097 24.5824C103.571 24.5824 102.699 23.3405 102.699 21.532C102.699 19.7236 103.484 18.3509 105.032 18.3509C106.558 18.3509 107.277 19.6146 107.277 21.532C107.277 23.4276 106.449 24.5824 105.097 24.5824Z" fill="#B5B8B7"/>
<path d="M116.66 27.3278C119.581 27.3278 121.74 26.0641 121.74 23.6237C121.74 20.7694 119.429 20.2683 117.467 19.9415C116.05 19.68 114.785 19.5711 114.785 18.7867C114.785 18.0894 115.461 17.7626 116.333 17.7626C117.314 17.7626 117.99 18.0676 118.121 19.0699H121.391C121.217 16.8693 119.516 15.4966 116.355 15.4966C113.717 15.4966 111.537 16.7167 111.537 19.0699C111.537 21.6846 113.608 22.2075 115.548 22.5343C117.031 22.7958 118.382 22.9047 118.382 23.907C118.382 24.626 117.707 25.0182 116.638 25.0182C115.461 25.0182 114.72 24.4735 114.589 23.3623H111.231C111.34 25.8244 113.39 27.3278 116.66 27.3278Z" fill="#B5B8B7"/>
<path d="M126.567 27.306C128.115 27.306 129.096 26.6959 129.903 25.6065H129.968V26.9792H133.369V15.8234H129.815V22.055C129.815 23.3841 129.074 24.2992 127.853 24.2992C126.72 24.2992 126.175 23.6237 126.175 22.4036V15.8234H122.643V23.1444C122.643 25.6283 123.994 27.306 126.567 27.306Z" fill="#B5B8B7"/>
<path d="M134.915 26.9792H138.469V20.7259C138.469 19.3967 139.123 18.4598 140.235 18.4598C141.303 18.4598 141.805 19.1571 141.805 20.3554V26.9792H145.358V20.7259C145.358 19.3967 145.99 18.4598 147.124 18.4598C148.192 18.4598 148.694 19.1571 148.694 20.3554V26.9792H152.247V19.7236C152.247 17.2179 150.983 15.4966 148.454 15.4966C147.015 15.4966 145.816 16.1067 144.944 17.4576H144.9C144.334 16.2592 143.222 15.4966 141.761 15.4966C140.148 15.4966 139.079 16.2592 138.382 17.414H138.316V15.8234H134.915V26.9792Z" fill="#B5B8B7"/>
<path d="M23.4016 2.48923L19.8289 1.53247L16.8181 12.7623L14.0999 2.62393L10.5271 3.58069L13.4639 14.5344L6.14891 7.22382L3.53346 9.83772L11.5571 17.8567L1.56493 15.1808L0.607605 18.7514L11.5253 21.6751C11.4003 21.1363 11.3342 20.5749 11.3342 19.998C11.3342 15.9148 14.6462 12.6048 18.7318 12.6048C22.8174 12.6048 26.1295 15.9148 26.1295 19.998C26.1295 20.5712 26.0642 21.1291 25.9407 21.6648L35.8629 24.3218L36.8202 20.7512L25.859 17.8159L35.8519 15.1399L34.8945 11.5693L23.9339 14.5044L31.2488 7.19381L28.6334 4.57991L20.721 12.4876L23.4016 2.48923Z" fill="#B5B8B7"/>
<path d="M25.9311 21.7064C25.6248 23.0006 24.9781 24.1633 24.0908 25.0949L31.279 32.2788L33.8945 29.6649L25.9311 21.7064Z" fill="#B5B8B7"/>
<path d="M24.0181 25.17C23.1201 26.0867 21.9852 26.7708 20.7126 27.1233L23.3282 36.8792L26.9009 35.9224L24.0181 25.17Z" fill="#B5B8B7"/>
<path d="M20.5792 27.159C19.9887 27.3107 19.3698 27.3913 18.732 27.3913C18.0487 27.3913 17.387 27.2987 16.7589 27.1254L14.1409 36.8901L17.7136 37.8468L20.5792 27.159Z" fill="#B5B8B7"/>
<path d="M16.6326 27.0894C15.3794 26.7193 14.2647 26.0265 13.385 25.1072L6.17911 32.3088L8.79456 34.9227L16.6326 27.0894Z" fill="#B5B8B7"/>
<path d="M13.3248 25.0435C12.4602 24.1184 11.8304 22.9712 11.5306 21.697L1.57608 24.3627L2.5334 27.9333L13.3248 25.0435Z" fill="#B5B8B7"/>
</g>
<defs>
<clipPath id="clip0_4002_66">
<rect width="152.611" height="37.2222" fill="white" transform="translate(0.319458 0.694519)"/>
</clipPath>
</defs>
</svg>
