<svg width="386" height="404" viewBox="0 0 386 404" fill="none" xmlns="http://www.w3.org/2000/svg">
<path d="M178.973 0.856563C234.777 -1.15979 308.845 22.6279 351.446 38.4571C372.384 46.2368 385.556 66.4491 385.556 88.7853C385.556 111.728 371.823 131.464 352.129 140.22C348.095 142.014 347.307 151.344 351.446 152.882C372.384 160.662 385.556 180.873 385.556 203.209C385.556 233.411 361.758 258.055 331.892 259.413C361.758 260.772 385.556 285.416 385.556 315.618C385.556 337.954 372.384 358.166 351.446 365.945C308.845 381.775 234.777 405.563 178.973 403.547C132.048 401.851 71.06 380.935 33.8447 366.377C13.2027 358.302 0.305664 338.165 0.305664 316C0.305666 285.59 24.269 260.777 54.3428 259.413C24.2691 258.05 0.305666 233.238 0.305664 202.827C0.305664 180.662 13.2027 160.525 33.8447 152.45C38.2552 150.725 37.5263 141.841 33.2268 139.855C13.7919 130.879 0.30575 111.217 0.305664 88.4034C0.305664 66.2382 13.2027 46.1013 33.8447 38.0265C71.06 23.4686 132.048 2.55216 178.973 0.856563Z" fill="#F5F5F5"/>
</svg>
