<svg width="559" height="558" viewBox="0 0 559 558" fill="none" xmlns="http://www.w3.org/2000/svg">
<path d="M433.13 409.933C395.536 451.223 326.726 487.514 285.614 506.887C265.409 516.407 241.751 511.682 225.789 496.058C209.393 480.009 204.896 456.391 212.414 436.192C213.954 432.054 207.837 424.965 203.843 426.847C183.638 436.368 159.98 431.643 144.017 416.018C122.433 394.891 121.469 360.644 141.394 338.35C119.531 358.747 85.2717 358.517 63.6868 337.389C47.7246 321.765 42.4939 298.213 51.5801 277.809C70.0679 236.292 104.879 166.721 145.355 128.252C179.39 95.9041 236.998 66.9503 273.434 50.5382C293.643 41.435 317.055 46.3043 332.895 61.8087C354.628 83.0812 355.597 117.564 335.534 140.009C357.545 119.47 392.04 119.701 413.772 140.973C429.612 156.477 434.981 179.78 426.313 200.18C424.461 204.539 431.319 210.232 435.746 208.548C455.755 200.938 479.241 205.055 495.544 221.013C511.384 236.518 516.753 259.82 508.085 280.22C492.456 316.998 464.742 375.213 433.13 409.933Z" fill="#34978B"/>
</svg>
