<svg width="494" height="505" viewBox="0 0 494 505" fill="none" xmlns="http://www.w3.org/2000/svg">
<path d="M169.752 65.9683C222.008 46.2865 299.795 45.2494 345.22 46.6884C367.545 47.3956 386.468 62.3612 393.581 83.5346C400.887 105.284 394.153 128.364 378.273 142.937C375.02 145.922 377.245 155.017 381.658 155.156C403.983 155.864 422.905 170.828 430.018 192.002C439.636 220.632 424.925 251.57 397.045 262.369C425.79 254.146 456.196 269.928 465.814 298.558C472.926 319.732 466.877 343.086 449.507 357.128C414.163 385.7 351.526 431.835 297.985 447.695C252.964 461.03 188.49 460.625 148.576 458.675C126.437 457.594 107.799 442.613 100.741 421.601C91.0567 392.773 105.872 361.621 133.947 350.752C105.004 359.037 74.386 343.148 64.7018 314.32C57.6434 293.309 63.4566 270.113 80.4526 255.885C84.0841 252.845 80.5641 244.656 75.8561 244.143C54.5747 241.823 35.5292 227.479 28.2643 205.853C21.2059 184.842 27.0192 161.646 44.0152 147.418C74.6573 121.767 125.81 82.5183 169.752 65.9683Z" fill="#34978B"/>
</svg>
