<svg width="110" height="87" viewBox="0 0 110 87" fill="none" xmlns="http://www.w3.org/2000/svg">
<path d="M10.0977 -0.931437C9.07278 -1.00884 8.17915 -0.240707 8.10175 0.784237C8.02435 1.80918 8.79248 2.70281 9.81743 2.78022L10.0977 -0.931437ZM103.398 47.2861L101.57 47.6345L103.398 47.2861ZM98.5603 86.6863L113.382 71.1252L92.4949 66.0698L98.5603 86.6863ZM9.95758 0.924389C9.81743 2.78022 9.81734 2.78021 9.81758 2.78023C9.8181 2.78027 9.81866 2.78031 9.81969 2.78039C9.82174 2.78055 9.8251 2.7808 9.82974 2.78116C9.83902 2.78188 9.85346 2.783 9.87297 2.78455C9.912 2.78764 9.97131 2.7924 10.0503 2.79895C10.2083 2.81205 10.4449 2.83227 10.7553 2.86043C11.376 2.91674 12.2912 3.00481 13.461 3.13118C15.8009 3.38393 19.1576 3.78972 23.2115 4.40074C31.3251 5.62366 42.2038 7.66461 53.3016 10.9358C64.4165 14.212 75.6527 18.694 84.5432 24.7558C93.4357 30.8189 99.7966 38.33 101.57 47.6345L103.398 47.2861L105.226 46.9376C103.199 36.3026 95.9803 28.0488 86.6401 21.6804C77.298 15.3107 65.6491 10.6948 54.3539 7.36542C43.0417 4.03104 31.9852 1.95889 23.7663 0.72009C19.6539 0.100252 16.2449 -0.311976 13.8607 -0.569517C12.6685 -0.698304 11.7321 -0.788454 11.0916 -0.846568C10.7714 -0.875626 10.5251 -0.896677 10.3578 -0.910547C10.2741 -0.917482 10.2102 -0.922621 10.1667 -0.926068C10.1449 -0.927792 10.1282 -0.929093 10.1167 -0.929983C10.1109 -0.930429 10.1065 -0.930771 10.1033 -0.931013C10.1017 -0.931134 10.1003 -0.93124 10.0995 -0.9313C10.0985 -0.931381 10.0977 -0.931437 9.95758 0.924389ZM103.398 47.2861L101.57 47.6345C102.818 54.1844 102.004 62.6363 100.669 70.0767L102.501 70.4054L104.333 70.7341C105.685 63.1969 106.608 54.1863 105.226 46.9376L103.398 47.2861Z" fill="#017D6E"/>
</svg>
