<svg width="112" height="91" viewBox="0 0 112 91" fill="none" xmlns="http://www.w3.org/2000/svg">
<path d="M99.6056 91.8844C100.627 91.9975 101.547 91.261 101.66 90.2394C101.773 89.2178 101.037 88.2979 100.015 88.1848L99.6056 91.8844ZM8.04483 40.4401L9.88408 40.1557L8.04483 40.4401ZM14.2547 1.2327L-1.1011 16.267L19.5969 22.0484L14.2547 1.2327ZM99.8104 90.0346C100.015 88.1848 100.015 88.1848 100.015 88.1848C100.015 88.1847 100.014 88.1846 100.013 88.1845C100.011 88.1843 100.008 88.1839 100.003 88.1834C99.9937 88.1824 99.9793 88.1807 99.9599 88.1785C99.921 88.1741 99.8619 88.1672 99.7832 88.1579C99.6257 88.1393 99.3899 88.1109 99.0808 88.0719C98.4624 87.9939 97.5508 87.874 96.3861 87.7069C94.0565 87.3726 90.716 86.8499 86.6859 86.0978C78.6199 84.5925 67.8191 82.1731 56.8422 78.5166C45.8484 74.8545 34.7754 69.9831 26.1019 63.6147C17.4265 57.245 11.3315 49.5164 9.88408 40.1557L8.04483 40.4401L6.20558 40.7245C7.86003 51.4238 14.7867 59.9246 23.899 66.615C33.0131 73.3069 44.4938 78.3266 55.6659 82.0481C66.8549 85.7752 77.8323 88.232 86.003 89.7568C90.0913 90.5198 93.4837 91.0508 95.8575 91.3914C97.0445 91.5617 97.9772 91.6845 98.6152 91.7649C98.9343 91.8051 99.1797 91.8347 99.3464 91.8544C99.4298 91.8643 99.4935 91.8716 99.5369 91.8766C99.5586 91.8791 99.5752 91.881 99.5867 91.8823C99.5924 91.8829 99.5969 91.8834 99.6 91.8838C99.6016 91.8839 99.603 91.8841 99.6038 91.8842C99.6048 91.8843 99.6056 91.8844 99.8104 90.0346ZM8.04483 40.4401L9.88408 40.1557C8.86514 33.5662 9.97367 25.1479 11.5676 17.7586L9.7483 17.3662L7.92904 16.9738C6.31439 24.4592 5.07793 33.432 6.20558 40.7245L8.04483 40.4401Z" fill="#017D6E"/>
</svg>
